# 3ds Max Wavefront OBJ Exporter v0.97b - (c)2007 guruware
# File Created: 22.11.2016 14:50:01

mtllib 1.mtl

#
# object tower1
#

v  5.2984 2.1968 10.8785
v  5.7529 -0.0000 10.8788
v  7.4457 -0.0000 -0.0000
v  6.8574 2.8404 -0.0000
v  4.0686 4.0720 10.8777
v  5.2649 5.2649 -0.0000
v  3.0202 3.0310 21.8692
v  3.9319 1.6352 21.8707
v  4.2692 -0.0000 21.8713
v  2.1973 5.3038 10.8765
v  2.8404 6.8574 -0.0000
v  0.0062 5.7590 10.8751
v  -0.0000 7.4457 -0.0000
v  0.0123 4.2873 21.8643
v  1.6339 3.9482 21.8669
v  -2.1830 5.3042 10.8736
v  -2.8404 6.8574 -0.0000
v  -4.0504 4.0726 10.8724
v  -5.2649 5.2649 -0.0000
v  -2.9839 3.0322 21.8593
v  -1.6054 3.9490 21.8616
v  -5.2762 2.1972 10.8717
v  -6.8574 2.8404 -0.0000
v  -5.7287 -0.0000 10.8714
v  -7.4457 -0.0000 -0.0000
v  -4.2211 -0.0000 21.8572
v  -3.8878 1.6360 21.8578
v  -5.2762 -2.1972 10.8717
v  -6.8574 -2.8404 0.0000
v  -4.0504 -4.0726 10.8724
v  -5.2649 -5.2649 0.0000
v  -2.9839 -3.0322 21.8593
v  -3.8878 -1.6360 21.8578
v  -2.1830 -5.3042 10.8736
v  -2.8404 -6.8574 0.0000
v  0.0062 -5.7590 10.8751
v  0.0000 -7.4457 0.0000
v  0.0123 -4.2873 21.8643
v  -1.6054 -3.9490 21.8616
v  2.1973 -5.3038 10.8765
v  2.8404 -6.8574 0.0000
v  4.0686 -4.0720 10.8777
v  5.2649 -5.2649 0.0000
v  3.0202 -3.0310 21.8692
v  1.6339 -3.9482 21.8669
v  5.2984 -2.1968 10.8785
v  6.8574 -2.8404 0.0000
v  3.9319 -1.6352 21.8707
v  3.4462 1.6709 70.7579
v  2.6458 3.0969 70.0464
v  0.7419 0.8383 68.3469
v  0.9663 0.4523 68.5466
v  1.4273 4.0331 68.9633
v  0.0000 4.3785 67.6943
v  -0.0000 1.1857 67.6865
v  0.4003 1.0920 68.0428
v  -1.4269 4.0321 66.4251
v  -2.6446 3.0955 65.3416
v  -0.7421 0.8384 67.0262
v  -0.4003 1.0920 67.3303
v  -3.4444 1.6699 64.6297
v  -3.7398 -0.0001 64.3667
v  -1.0494 -0.0000 66.7528
v  -0.9665 0.4523 66.8266
v  -3.4444 -1.6701 64.6297
v  -2.6446 -3.0957 65.3415
v  -0.7421 -0.8384 67.0262
v  -0.9665 -0.4523 66.8266
v  -1.4269 -4.0323 66.4250
v  -0.0001 -4.3786 67.6943
v  -0.0000 -1.1857 67.6865
v  -0.4003 -1.0920 67.3303
v  1.4270 -4.0330 68.9634
v  2.6453 -3.0966 70.0466
v  0.7419 -0.8383 68.3469
v  0.4003 -1.0920 68.0428
v  3.7419 0.0000 71.0208
v  1.0491 -0.0000 68.6203
v  0.9663 -0.4523 68.5466
v  3.4459 -1.6707 70.7580
v  -0.0001 -0.0000 87.4164
v  2.3098 0.9859 50.6214
v  2.3961 1.0168 43.1400
v  1.8409 1.8804 43.1057
v  1.7714 1.8094 50.4910
v  2.5459 1.1122 57.0028
v  1.9500 2.0341 56.7195
v  2.7405 0.0145 57.0959
v  2.4921 0.0096 50.6618
v  2.5976 0.0024 43.1508
v  0.9476 2.3077 50.2896
v  0.9972 2.4373 43.0526
v  0.0164 2.6361 42.9920
v  -0.0007 2.4624 50.0596
v  1.0344 2.5753 56.2837
v  -0.0160 2.7306 55.7821
v  -0.9124 2.2547 49.8437
v  -0.9499 2.4251 42.9348
v  -1.7675 1.8615 42.8876
v  -1.6742 1.7279 49.6653
v  -1.0164 2.4945 55.3015
v  -1.8483 1.9099 54.9002
v  -2.1725 0.9252 49.5482
v  -2.3018 1.0026 42.8565
v  -2.4982 -0.0039 42.8450
v  -2.3558 -0.0154 49.5049
v  -2.3935 1.0197 54.6366
v  -2.5944 -0.0232 54.5391
v  -2.1725 -0.9561 49.5482
v  -2.3018 -1.0104 42.8565
v  -1.7675 -1.8692 42.8876
v  -1.6742 -1.7587 49.6653
v  -2.3935 -1.0661 54.6365
v  -1.8483 -1.9563 54.9002
v  -0.9124 -2.2856 49.8437
v  -0.9499 -2.4328 42.9348
v  0.0125 -2.6405 42.9902
v  -0.0163 -2.4797 50.0526
v  -1.0164 -2.5409 55.3015
v  -0.0395 -2.7567 55.7716
v  0.8852 -2.2846 50.2616
v  0.9816 -2.4316 43.0456
v  1.8175 -1.8668 43.0952
v  1.6778 -1.7553 50.4490
v  0.9406 -2.5406 56.2417
v  1.8093 -1.9529 56.6565
v  2.2474 -0.9474 50.5934
v  2.3805 -1.0072 43.1330
v  2.4521 -1.0542 56.9608
v  2.9583 1.3628 63.7526
v  2.2678 2.5075 63.2660
v  3.1961 0.0097 63.9246
v  1.2109 3.2159 62.5223
v  -0.0127 3.4472 61.6570
v  -1.2029 3.1606 60.8053
v  -2.2044 2.4226 60.0841
v  -2.8614 1.2997 59.6102
v  -3.1038 -0.0156 59.4350
v  -2.8614 -1.3310 59.6101
v  -2.2044 -2.4538 60.0840
v  -1.2029 -3.1918 60.8051
v  -0.0284 -3.4648 61.6499
v  1.1479 -3.1926 62.4944
v  2.1734 -2.4531 63.2242
v  2.8953 -1.3239 63.7247
v  2.9506 1.2375 33.0905
v  2.2674 2.2940 33.0885
v  3.2037 -0.0000 33.0913
v  1.2299 2.9884 33.0854
v  0.0182 3.2454 33.0817
v  -1.1877 2.9896 33.0780
v  -2.2135 2.2957 33.0749
v  -2.8850 1.2387 33.0729
v  -3.1321 -0.0000 33.0721
v  -2.8850 -1.2387 33.0729
v  -2.2135 -2.2957 33.0749
v  -1.1877 -2.9896 33.0781
v  0.0182 -3.2454 33.0817
v  1.2299 -2.9884 33.0854
v  2.2674 -2.2940 33.0885
v  2.9506 -1.2375 33.0905
# 161 vertices

vn 0.8998 0.3722 0.2279
vn 0.9735 -0.0000 0.2288
vn 0.9699 -0.0000 0.2437
vn 0.8963 0.3711 0.2428
vn 0.6891 0.6879 0.2281
vn 0.6860 0.6858 0.2431
vn 0.6973 0.6933 0.1821
vn 0.9090 0.3748 0.1822
vn 0.9831 0.0000 0.1830
vn 0.3733 0.8995 0.2270
vn 0.3713 0.8964 0.2421
vn -0.0002 0.9737 0.2278
vn -0.0002 0.9700 0.2430
vn -0.0002 0.9835 0.1809
vn 0.3787 0.9077 0.1806
vn -0.3739 0.8990 0.2279
vn -0.3716 0.8960 0.2432
vn -0.6896 0.6867 0.2300
vn -0.6858 0.6852 0.2453
vn -0.6996 0.6907 0.1831
vn -0.3800 0.9071 0.1808
vn -0.8996 0.3709 0.2307
vn -0.8956 0.3707 0.2459
vn -0.9727 0.0001 0.2320
vn -0.9690 0.0001 0.2470
vn -0.9825 0.0000 0.1862
vn -0.9099 0.3715 0.1844
vn -0.8996 -0.3707 0.2307
vn -0.8958 -0.3706 0.2455
vn -0.6896 -0.6867 0.2300
vn -0.6859 -0.6853 0.2448
vn -0.6994 -0.6906 0.1842
vn -0.9098 -0.3715 0.1853
vn -0.3738 -0.8991 0.2278
vn -0.3715 -0.8961 0.2429
vn 0.0000 -0.9737 0.2278
vn -0.0001 -0.9700 0.2430
vn -0.0002 -0.9835 0.1809
vn -0.3800 -0.9070 0.1816
vn 0.3734 -0.8995 0.2270
vn 0.3714 -0.8963 0.2423
vn 0.6890 -0.6879 0.2282
vn 0.6859 -0.6858 0.2433
vn 0.6974 -0.6934 0.1815
vn 0.3787 -0.9078 0.1801
vn 0.8997 -0.3722 0.2279
vn 0.8962 -0.3712 0.2429
vn 0.9091 -0.3748 0.1818
vn -0.4833 -0.0004 0.8755
vn -0.4831 -0.0009 0.8756
vn -0.4832 -0.0006 0.8755
vn -0.4833 -0.0003 0.8755
vn -0.4827 -0.0012 0.8758
vn -0.4824 -0.0013 0.8759
vn -0.4826 -0.0012 0.8758
vn -0.4830 -0.0010 0.8756
vn -0.4821 -0.0013 0.8761
vn -0.4818 -0.0010 0.8763
vn -0.4817 -0.0010 0.8763
vn -0.4815 -0.0006 0.8764
vn -0.4814 -0.0000 0.8765
vn -0.4815 -0.0005 0.8765
vn -0.4815 0.0006 0.8764
vn -0.4818 0.0010 0.8763
vn -0.4817 0.0010 0.8763
vn -0.4815 0.0005 0.8764
vn -0.4821 0.0013 0.8761
vn -0.4825 0.0013 0.8759
vn -0.4827 0.0014 0.8758
vn -0.4822 0.0013 0.8761
vn -0.4828 0.0012 0.8757
vn -0.4831 0.0009 0.8756
vn -0.4833 0.0008 0.8754
vn -0.4831 0.0012 0.8756
vn -0.4833 0.0001 0.8754
vn -0.4833 0.0000 0.8754
vn -0.4834 0.0004 0.8754
vn -0.4833 0.0006 0.8755
vn 0.9960 0.0000 0.0898
vn 0.9203 0.3805 0.0908
vn -0.0039 0.0000 1.0000
vn 0.6871 0.7204 0.0943
vn 0.3193 0.9427 0.0965
vn -0.1235 0.9877 0.0958
vn -0.5103 0.8551 0.0915
vn -0.7907 0.6061 0.0867
vn -0.9465 0.3118 0.0828
vn -0.9967 -0.0000 0.0817
vn -0.9465 -0.3118 0.0828
vn -0.7907 -0.6061 0.0867
vn -0.5103 -0.8551 0.0915
vn -0.1235 -0.9877 0.0958
vn 0.3193 -0.9427 0.0965
vn 0.6871 -0.7205 0.0943
vn 0.9203 -0.3805 0.0908
vn 0.9287 0.3702 -0.0236
vn 0.9255 0.3741 0.0582
vn 0.7090 0.7027 0.0587
vn 0.6980 0.7157 -0.0245
vn 0.9305 0.3547 -0.0913
vn 0.7069 0.6996 -0.1043
vn 0.9952 -0.0400 -0.0894
vn 0.9992 -0.0330 -0.0206
vn 0.9981 -0.0092 0.0615
vn 0.3497 0.9366 -0.0210
vn 0.3780 0.9237 0.0626
vn -0.0109 0.9976 0.0680
vn -0.0285 0.9994 -0.0177
vn 0.3660 0.9230 -0.1193
vn -0.0014 0.9912 -0.1321
vn -0.4008 0.9160 -0.0178
vn -0.3987 0.9144 0.0702
vn -0.7225 0.6878 0.0707
vn -0.7234 0.6902 -0.0188
vn -0.3734 0.9176 -0.1365
vn -0.7063 0.6955 -0.1320
vn -0.9305 0.3658 -0.0193
vn -0.9286 0.3645 0.0701
vn -0.9976 -0.0001 0.0696
vn -0.9998 -0.0001 -0.0201
vn -0.9211 0.3690 -0.1239
vn -0.9927 -0.0006 -0.1205
vn -0.9304 -0.3660 -0.0215
vn -0.9286 -0.3646 0.0683
vn -0.7226 -0.6879 0.0677
vn -0.7231 -0.6904 -0.0229
vn -0.9210 -0.3696 -0.1231
vn -0.7066 -0.6954 -0.1312
vn -0.3952 -0.9183 -0.0233
vn -0.3975 -0.9151 0.0671
vn -0.0022 -0.9977 0.0679
vn 0.0034 -0.9998 -0.0215
vn -0.3676 -0.9198 -0.1372
vn 0.0388 -0.9900 -0.1359
vn 0.3936 -0.9191 -0.0172
vn 0.3896 -0.9184 0.0690
vn 0.7092 -0.7015 0.0696
vn 0.7008 -0.7132 -0.0142
vn 0.4238 -0.8972 -0.1242
vn 0.7122 -0.6933 -0.1096
vn 0.9090 -0.4165 -0.0160
vn 0.9198 -0.3866 0.0664
vn 0.9065 -0.4111 -0.0965
vn 0.9355 0.3314 -0.1228
vn 0.7455 0.6499 -0.1477
vn 0.8007 0.5771 -0.1605
vn 0.9453 0.2985 -0.1315
vn 0.9926 -0.0196 -0.1198
vn 0.4407 0.8786 -0.1838
vn 0.0700 0.9741 -0.2149
vn 0.1965 0.9508 -0.2395
vn 0.5488 0.8111 -0.2023
vn -0.3311 0.9169 -0.2227
vn -0.6855 0.6968 -0.2110
vn -0.6383 0.7325 -0.2368
vn -0.2431 0.9372 -0.2502
vn -0.9096 0.3681 -0.1927
vn -0.9828 -0.0006 -0.1849
vn -0.9789 0.0001 -0.2045
vn -0.8961 0.3888 -0.2138
vn -0.9100 -0.3685 -0.1900
vn -0.6879 -0.6960 -0.2057
vn -0.6419 -0.7311 -0.2313
vn -0.8968 -0.3883 -0.2121
vn -0.3320 -0.9181 -0.2167
vn 0.0898 -0.9728 -0.2134
vn 0.1902 -0.9547 -0.2288
vn -0.2512 -0.9377 -0.2399
vn 0.4740 -0.8592 -0.1925
vn 0.7501 -0.6404 -0.1648
vn 0.8014 -0.5743 -0.1672
vn 0.5503 -0.8104 -0.2008
vn 0.9237 -0.3580 -0.1366
vn 0.9924 -0.0003 -0.1232
vn 0.9444 -0.2990 -0.1366
vn 0.9186 0.3754 0.1235
vn 0.7070 0.6964 0.1229
vn 0.9922 -0.0002 0.1250
vn 0.3855 0.9146 0.1223
vn -0.0004 0.9923 0.1237
vn -0.3881 0.9131 0.1249
vn -0.7114 0.6912 0.1273
vn -0.9205 0.3690 0.1286
vn -0.9916 -0.0002 0.1296
vn -0.9204 -0.3693 0.1283
vn -0.7115 -0.6912 0.1268
vn -0.3884 -0.9130 0.1245
vn -0.0004 -0.9923 0.1240
vn 0.3856 -0.9143 0.1240
vn 0.7069 -0.6961 0.1254
vn 0.9183 -0.3756 0.1253
# 191 vertex normals

vt 0.7108 0.2411 0.0416
vt 0.6566 0.2412 0.0424
vt 0.6566 0.1055 0.1267
vt 0.7107 0.1055 0.1256
vt 0.7649 0.2411 0.0426
vt 0.7649 0.1055 0.1267
vt 0.7651 0.3782 -0.0310
vt 0.7109 0.3782 -0.0320
vt 0.6566 0.3782 -0.0315
vt 0.8190 0.2411 0.0418
vt 0.8190 0.1055 0.1256
vt 0.8730 0.2411 0.0427
vt 0.8731 0.1055 0.1267
vt 0.8727 0.3781 -0.0306
vt 0.8190 0.3781 -0.0313
vt 0.0609 0.2411 0.0416
vt 0.0070 0.2411 0.0427
vt 0.0071 0.1055 0.1267
vt 0.0612 0.1055 0.1256
vt 0.1150 0.2411 0.0420
vt 0.1154 0.1055 0.1267
vt 0.1143 0.3780 -0.0322
vt 0.0603 0.3781 -0.0318
vt 0.0067 0.3781 -0.0306
vt 0.1692 0.2411 0.0406
vt 0.1695 0.1055 0.1256
vt 0.2236 0.2411 0.0412
vt 0.2236 0.1055 0.1267
vt 0.2236 0.3780 -0.0338
vt 0.1687 0.3780 -0.0340
vt 0.2780 0.2411 0.0406
vt 0.2777 0.1055 0.1256
vt 0.3322 0.2411 0.0420
vt 0.3319 0.1055 0.1267
vt 0.3330 0.3780 -0.0322
vt 0.2785 0.3780 -0.0340
vt 0.3863 0.2411 0.0416
vt 0.3860 0.1055 0.1256
vt 0.4403 0.2411 0.0427
vt 0.4401 0.1055 0.1267
vt 0.4405 0.3781 -0.0306
vt 0.3869 0.3781 -0.0318
vt 0.4942 0.2411 0.0418
vt 0.4942 0.1055 0.1256
vt 0.5483 0.2411 0.0426
vt 0.5484 0.1055 0.1267
vt 0.5481 0.3782 -0.0310
vt 0.4942 0.3781 -0.0313
vt 0.6024 0.2411 0.0416
vt 0.6025 0.1055 0.1256
vt 0.6023 0.3782 -0.0320
vt 0.9710 0.7773 0.0000
vt 0.9875 0.7904 0.0000
vt 0.9533 0.8081 0.0000
vt 0.9488 0.8045 0.0000
vt 0.9965 0.8074 0.0000
vt 0.9974 0.8255 0.0000
vt 0.9559 0.8180 0.0000
vt 0.9557 0.8129 0.0000
vt 0.9893 0.8420 0.0000
vt 0.9740 0.8545 0.0000
vt 0.9495 0.8261 0.0000
vt 0.9537 0.8226 0.0000
vt 0.9535 0.8609 0.0000
vt 0.9310 0.8605 0.0000
vt 0.9379 0.8279 0.0000
vt 0.9439 0.8279 0.0000
vt 0.9101 0.8530 0.0000
vt 0.8936 0.8399 0.0000
vt 0.9277 0.8222 0.0000
vt 0.9322 0.8258 0.0000
vt 0.8845 0.8229 0.0000
vt 0.8836 0.8048 0.0000
vt 0.9251 0.8124 0.0000
vt 0.9253 0.8174 0.0000
vt 0.8917 0.7883 0.0000
vt 0.9070 0.7758 0.0000
vt 0.9315 0.8042 0.0000
vt 0.9273 0.8077 0.0000
vt 0.9500 0.7698 0.0000
vt 0.9432 0.8024 0.0000
vt 0.9371 0.8024 0.0000
vt 0.9275 0.7694 0.0000
vt 0.9480 0.8854 0.0000
vt 0.9514 0.8850 0.0000
vt 0.9487 0.9900 0.0000
vt 0.9544 0.8840 0.0000
vt 0.9567 0.8826 0.0000
vt 0.9598 0.8811 0.0000
vt 0.9626 0.8798 0.0000
vt 0.9657 0.8789 0.0000
vt 0.9686 0.8785 0.0000
vt 0.9719 0.8790 0.0000
vt 0.9750 0.8803 0.0000
vt 0.9775 0.8821 0.0000
vt 0.9311 0.8786 0.0000
vt 0.9338 0.8799 0.0000
vt 0.9368 0.8814 0.0000
vt 0.9399 0.8829 0.0000
vt 0.9425 0.8841 0.0000
vt 0.9450 0.8850 0.0000
vt 0.7122 0.7366 -0.1190
vt 0.7119 0.6433 -0.1145
vt 0.7663 0.6429 -0.1131
vt 0.7664 0.7350 -0.1180
vt 0.7134 0.8162 -0.1058
vt 0.7678 0.8126 -0.1038
vt 0.6573 0.8173 -0.1076
vt 0.6571 0.7371 -0.1200
vt 0.6567 0.6435 -0.1148
vt 0.8195 0.7325 -0.1199
vt 0.8196 0.6423 -0.1129
vt 0.8723 0.6415 -0.1128
vt 0.8732 0.7296 -0.1215
vt 0.8205 0.8072 -0.1059
vt 0.8740 0.8009 -0.1081
vt 0.0601 0.7269 -0.1229
vt 0.0586 0.6408 -0.1144
vt 0.1118 0.6402 -0.1162
vt 0.1132 0.7247 -0.1242
vt 0.0605 0.7950 -0.1099
vt 0.1131 0.7900 -0.1117
vt 0.0080 0.8009 -0.1081
vt 0.0072 0.7296 -0.1215
vt 0.0063 0.6415 -0.1128
vt 0.1681 0.7232 -0.1265
vt 0.1670 0.6398 -0.1190
vt 0.2238 0.6397 -0.1196
vt 0.2245 0.7227 -0.1267
vt 0.1681 0.7867 -0.1145
vt 0.2248 0.7855 -0.1148
vt 0.2807 0.7232 -0.1258
vt 0.2806 0.6398 -0.1189
vt 0.3357 0.6402 -0.1159
vt 0.3352 0.7247 -0.1231
vt 0.2813 0.7867 -0.1136
vt 0.3357 0.7900 -0.1100
vt 0.3877 0.7269 -0.1215
vt 0.3888 0.6408 -0.1140
vt 0.4407 0.6415 -0.1126
vt 0.4392 0.7295 -0.1206
vt 0.3876 0.7950 -0.1078
vt 0.4381 0.8008 -0.1068
vt 0.4910 0.7321 -0.1221
vt 0.4930 0.6422 -0.1135
vt 0.5465 0.6428 -0.1144
vt 0.5452 0.7345 -0.1232
vt 0.4889 0.8067 -0.1092
vt 0.5431 0.8118 -0.1115
vt 0.6016 0.7363 -0.1227
vt 0.6014 0.6433 -0.1154
vt 0.6006 0.8156 -0.1112
vt 0.7161 0.9003 -0.0819
vt 0.7718 0.8942 -0.0757
vt 0.7757 0.9788 -0.0413
vt 0.7189 0.9876 -0.0534
vt 0.6570 0.9025 -0.0850
vt 0.8235 0.8850 -0.0730
vt 0.8737 0.8742 -0.0724
vt 0.8731 0.9495 -0.0260
vt 0.8263 0.9653 -0.0310
vt 0.0573 0.8636 -0.0756
vt 0.1089 0.8546 -0.0809
vt 0.1046 0.9201 -0.0413
vt 0.0540 0.9336 -0.0311
vt 0.0077 0.8742 -0.0724
vt 0.1649 0.8487 -0.0875
vt 0.2243 0.8465 -0.0895
vt 0.2236 0.9080 -0.0578
vt 0.1614 0.9112 -0.0534
vt 0.2836 0.8487 -0.0869
vt 0.3392 0.8546 -0.0798
vt 0.3426 0.9201 -0.0413
vt 0.2858 0.9112 -0.0534
vt 0.3904 0.8636 -0.0742
vt 0.4389 0.8741 -0.0715
vt 0.4401 0.9495 -0.0260
vt 0.3932 0.9336 -0.0311
vt 0.4876 0.8846 -0.0751
vt 0.5400 0.8937 -0.0809
vt 0.5375 0.9788 -0.0413
vt 0.4870 0.9653 -0.0311
vt 0.5975 0.9000 -0.0856
vt 0.6566 0.9909 -0.0578
vt 0.5944 0.9876 -0.0534
vt 0.7114 0.5181 -0.0848
vt 0.7657 0.5180 -0.0835
vt 0.6566 0.5181 -0.0846
vt 0.8193 0.5180 -0.0832
vt 0.8724 0.5179 -0.0825
vt 0.0592 0.5179 -0.0839
vt 0.1129 0.5179 -0.0852
vt 0.0064 0.5179 -0.0825
vt 0.1677 0.5178 -0.0877
vt 0.2236 0.5178 -0.0881
vt 0.2795 0.5178 -0.0877
vt 0.3344 0.5179 -0.0853
vt 0.3880 0.5179 -0.0839
vt 0.4409 0.5179 -0.0825
vt 0.4939 0.5180 -0.0832
vt 0.5475 0.5180 -0.0835
vt 0.6019 0.5181 -0.0848
vt 0.0071 0.9495 -0.0260
# 203 texture coords

g tower1
usemtl Material__25
s 1
f 1/1/1 2/2/2 3/3/3 4/4/4 
f 5/5/5 1/1/1 4/4/4 6/6/6 
f 1/1/1 5/5/5 7/7/7 8/8/8 
f 2/2/2 1/1/1 8/8/8 9/9/9 
f 10/10/10 5/5/5 6/6/6 11/11/11 
f 12/12/12 10/10/10 11/11/11 13/13/13 
f 10/10/10 12/12/12 14/14/14 15/15/15 
f 5/5/5 10/10/10 15/15/15 7/7/7 
f 16/16/16 12/17/12 13/18/13 17/19/17 
f 18/20/18 16/16/16 17/19/17 19/21/19 
f 16/16/16 18/20/18 20/22/20 21/23/21 
f 12/17/12 16/16/16 21/23/21 14/24/14 
f 22/25/22 18/20/18 19/21/19 23/26/23 
f 24/27/24 22/25/22 23/26/23 25/28/25 
f 22/25/22 24/27/24 26/29/26 27/30/27 
f 18/20/18 22/25/22 27/30/27 20/22/20 
f 28/31/28 24/27/24 25/28/25 29/32/29 
f 30/33/30 28/31/28 29/32/29 31/34/31 
f 28/31/28 30/33/30 32/35/32 33/36/33 
f 24/27/24 28/31/28 33/36/33 26/29/26 
f 34/37/34 30/33/30 31/34/31 35/38/35 
f 36/39/36 34/37/34 35/38/35 37/40/37 
f 34/37/34 36/39/36 38/41/38 39/42/39 
f 30/33/30 34/37/34 39/42/39 32/35/32 
f 40/43/40 36/39/36 37/40/37 41/44/41 
f 42/45/42 40/43/40 41/44/41 43/46/43 
f 40/43/40 42/45/42 44/47/44 45/48/45 
f 36/39/36 40/43/40 45/48/45 38/41/38 
f 46/49/46 42/45/42 43/46/43 47/50/47 
f 2/2/2 46/49/46 47/50/47 3/3/3 
f 46/49/46 2/2/2 9/9/9 48/51/48 
f 42/45/42 46/49/46 48/51/48 44/47/44 
s 2
f 49/52/49 50/53/50 51/54/51 52/55/52 
f 53/56/53 54/57/54 55/58/55 56/59/56 
f 57/60/57 58/61/58 59/62/59 60/63/57 
f 61/64/60 62/65/61 63/66/61 64/67/62 
f 65/68/63 66/69/64 67/70/65 68/71/66 
f 69/72/67 70/73/68 71/74/69 72/75/70 
f 73/76/71 74/77/72 75/78/73 76/79/74 
f 77/80/75 78/81/76 79/82/77 80/83/78 
s 1
f 78/84/79 52/85/80 81/86/81 
f 52/85/80 51/87/82 81/86/81 
f 51/87/82 56/88/83 81/86/81 
f 56/88/83 55/89/84 81/86/81 
f 55/89/84 60/90/85 81/86/81 
f 60/90/85 59/91/86 81/86/81 
f 59/91/86 64/92/87 81/86/81 
f 64/92/87 63/93/88 81/86/81 
f 63/93/88 68/94/89 81/86/81 
f 68/94/89 67/95/90 81/86/81 
f 67/96/90 72/97/91 81/86/81 
f 72/97/91 71/98/92 81/86/81 
f 71/98/92 76/99/93 81/86/81 
f 76/99/93 75/100/94 81/86/81 
f 75/100/94 79/101/95 81/86/81 
f 79/101/95 78/84/79 81/86/81 
f 82/102/96 83/103/97 84/104/98 85/105/99 
f 86/106/100 82/102/96 85/105/99 87/107/101 
f 82/102/96 86/106/100 88/108/102 89/109/103 
f 83/103/97 82/102/96 89/109/103 90/110/104 
f 91/111/105 92/112/106 93/113/107 94/114/108 
f 95/115/109 91/111/105 94/114/108 96/116/110 
f 91/111/105 95/115/109 87/107/101 85/105/99 
f 92/112/106 91/111/105 85/105/99 84/104/98 
f 97/117/111 98/118/112 99/119/113 100/120/114 
f 101/121/115 97/117/111 100/120/114 102/122/116 
f 97/117/111 101/121/115 96/123/110 94/124/108 
f 98/118/112 97/117/111 94/124/108 93/125/107 
f 103/126/117 104/127/118 105/128/119 106/129/120 
f 107/130/121 103/126/117 106/129/120 108/131/122 
f 103/126/117 107/130/121 102/122/116 100/120/114 
f 104/127/118 103/126/117 100/120/114 99/119/113 
f 109/132/123 110/133/124 111/134/125 112/135/126 
f 113/136/127 109/132/123 112/135/126 114/137/128 
f 109/132/123 113/136/127 108/131/122 106/129/120 
f 110/133/124 109/132/123 106/129/120 105/128/119 
f 115/138/129 116/139/130 117/140/131 118/141/132 
f 119/142/133 115/138/129 118/141/132 120/143/134 
f 115/138/129 119/142/133 114/137/128 112/135/126 
f 116/139/130 115/138/129 112/135/126 111/134/125 
f 121/144/135 122/145/136 123/146/137 124/147/138 
f 125/148/139 121/144/135 124/147/138 126/149/140 
f 121/144/135 125/148/139 120/143/134 118/141/132 
f 122/145/136 121/144/135 118/141/132 117/140/131 
f 127/150/141 128/151/142 90/110/104 89/109/103 
f 129/152/143 127/150/141 89/109/103 88/108/102 
f 127/150/141 129/152/143 126/149/140 124/147/138 
f 128/151/142 127/150/141 124/147/138 123/146/137 
f 130/153/144 86/106/100 87/107/101 131/154/145 
f 131/154/145 50/155/146 49/156/147 130/153/144 
f 86/106/100 130/153/144 132/157/148 88/108/102 
f 133/158/149 95/115/109 96/116/110 134/159/150 
f 134/159/150 54/160/151 53/161/152 133/158/149 
f 95/115/109 133/158/149 131/154/145 87/107/101 
f 135/162/153 101/121/115 102/122/116 136/163/154 
f 136/163/154 58/164/155 57/165/156 135/162/153 
f 101/121/115 135/162/153 134/166/150 96/123/110 
f 137/167/157 107/130/121 108/131/122 138/168/158 
f 138/168/158 62/169/159 61/170/160 137/167/157 
f 107/130/121 137/167/157 136/163/154 102/122/116 
f 139/171/161 113/136/127 114/137/128 140/172/162 
f 140/172/162 66/173/163 65/174/164 139/171/161 
f 113/136/127 139/171/161 138/168/158 108/131/122 
f 141/175/165 119/142/133 120/143/134 142/176/166 
f 142/176/166 70/177/167 69/178/168 141/175/165 
f 119/142/133 141/175/165 140/172/162 114/137/128 
f 143/179/169 125/148/139 126/149/140 144/180/170 
f 144/180/170 74/181/171 73/182/172 143/179/169 
f 125/148/139 143/179/169 142/176/166 120/143/134 
f 145/183/173 129/152/143 88/108/102 132/157/148 
f 132/157/148 77/184/174 80/185/175 145/183/173 
f 129/152/143 145/183/173 144/180/170 126/149/140 
f 146/186/176 8/8/8 7/7/7 147/187/177 
f 83/103/97 146/186/176 147/187/177 84/104/98 
f 146/186/176 83/103/97 90/110/104 148/188/178 
f 8/8/8 146/186/176 148/188/178 9/9/9 
f 149/189/179 15/15/15 14/14/14 150/190/180 
f 92/112/106 149/189/179 150/190/180 93/113/107 
f 149/189/179 92/112/106 84/104/98 147/187/177 
f 15/15/15 149/189/179 147/187/177 7/7/7 
f 151/191/181 21/23/21 20/22/20 152/192/182 
f 98/118/112 151/191/181 152/192/182 99/119/113 
f 151/191/181 98/118/112 93/125/107 150/193/180 
f 21/23/21 151/191/181 150/193/180 14/24/14 
f 153/194/183 27/30/27 26/29/26 154/195/184 
f 104/127/118 153/194/183 154/195/184 105/128/119 
f 153/194/183 104/127/118 99/119/113 152/192/182 
f 27/30/27 153/194/183 152/192/182 20/22/20 
f 155/196/185 33/36/33 32/35/32 156/197/186 
f 110/133/124 155/196/185 156/197/186 111/134/125 
f 155/196/185 110/133/124 105/128/119 154/195/184 
f 33/36/33 155/196/185 154/195/184 26/29/26 
f 157/198/187 39/42/39 38/41/38 158/199/188 
f 116/139/130 157/198/187 158/199/188 117/140/131 
f 157/198/187 116/139/130 111/134/125 156/197/186 
f 39/42/39 157/198/187 156/197/186 32/35/32 
f 159/200/189 45/48/45 44/47/44 160/201/190 
f 122/145/136 159/200/189 160/201/190 123/146/137 
f 159/200/189 122/145/136 117/140/131 158/199/188 
f 45/48/45 159/200/189 158/199/188 38/41/38 
f 161/202/191 48/51/48 9/9/9 148/188/178 
f 128/151/142 161/202/191 148/188/178 90/110/104 
f 161/202/191 128/151/142 123/146/137 160/201/190 
f 48/51/48 161/202/191 160/201/190 44/47/44 
f 132/157/148 130/153/144 49/156/147 77/184/174 
f 50/155/146 131/154/145 133/158/149 53/161/152 
f 54/203/151 134/166/150 135/162/153 57/165/156 
f 58/164/155 136/163/154 137/167/157 61/170/160 
f 62/169/159 138/168/158 139/171/161 65/174/164 
f 66/173/163 140/172/162 141/175/165 69/178/168 
f 70/177/167 142/176/166 143/179/169 73/182/172 
f 74/181/171 144/180/170 145/183/173 80/185/175 
s 2
f 77/80/75 49/52/49 52/55/52 78/81/76 
f 50/53/50 53/56/53 56/59/56 51/54/51 
f 54/57/54 57/60/57 60/63/57 55/58/55 
f 58/61/58 61/64/60 64/67/62 59/62/59 
f 62/65/61 65/68/63 68/71/66 63/66/61 
f 66/69/64 69/72/67 72/75/70 67/70/65 
f 70/73/68 73/76/71 76/79/74 71/74/69 
f 74/77/72 80/83/78 79/82/77 75/78/73 
# 144 polygons - 16 triangles

