# This file uses centimeters as units for non-parametric coordinates.

mtllib build2.mtl
g default
v -5.000000 -5.000000 22.008175
v 10.316936 -5.000000 22.008175
v -5.000000 5.000000 22.008175
v 10.316936 5.000000 22.008175
v -5.000000 5.000000 0.002627
v 5.000000 5.000000 0.002627
v -5.000000 -5.000000 0.002627
v 5.000000 -5.000000 0.002627
v -2.984251 -2.984251 33.034569
v 8.301188 -2.984251 33.034569
v 8.301188 2.984251 33.034569
v -2.984251 2.984251 33.034569
v -1.380572 -1.380572 33.549011
v 1.380572 -1.380572 33.549011
v 1.380572 1.380572 33.549011
v -1.380572 1.380572 33.549011
v -1.380572 -1.380572 33.549011
v 1.380572 -1.380572 33.549011
v 1.380572 1.380572 33.549011
v -1.380572 1.380572 33.549011
v -0.016033 -0.016033 34.223721
v 0.016033 -0.016033 34.223721
v 0.016033 0.016033 34.223721
v -0.016033 0.016033 34.223721
v -0.633433 6.772726 25.314392
v 5.950370 6.772726 25.314392
v 0.233012 5.690586 30.547174
v 5.083924 5.690586 30.547174
vt 0.375000 0.000000
vt 0.625000 0.000000
vt 0.375000 0.250000
vt 0.625000 0.250000
vt 0.375000 0.500000
vt 0.625000 0.500000
vt 0.375000 0.750000
vt 0.625000 0.750000
vt 0.375000 1.000000
vt 0.625000 1.000000
vt 0.875000 0.000000
vt 0.875000 0.250000
vt 0.125000 0.000000
vt 0.125000 0.250000
vt 0.375000 0.000000
vt 0.625000 0.000000
vt 0.625000 0.250000
vt 0.375000 0.250000
vt 0.375000 0.000000
vt 0.625000 0.000000
vt 0.625000 0.250000
vt 0.375000 0.250000
vt 0.375000 0.000000
vt 0.625000 0.000000
vt 0.625000 0.250000
vt 0.375000 0.250000
vt 0.375000 0.000000
vt 0.625000 0.000000
vt 0.625000 0.250000
vt 0.375000 0.250000
vt 0.625000 0.250000
vt 0.375000 0.250000
vt 0.375000 0.250000
vt 0.625000 0.250000
vn 0.000000 0.000000 1.000000
vn 0.000000 0.000000 1.000000
vn 0.000000 0.000000 1.000000
vn 0.000000 0.000000 1.000000
vn 0.000000 1.000000 -0.000000
vn 0.000000 1.000000 -0.000000
vn 0.000000 1.000000 -0.000000
vn 0.000000 1.000000 -0.000000
vn 0.000000 0.000000 -1.000000
vn 0.000000 0.000000 -1.000000
vn 0.000000 0.000000 -1.000000
vn 0.000000 0.000000 -1.000000
vn 0.000000 -1.000000 0.000000
vn 0.000000 -1.000000 0.000000
vn 0.000000 -0.997903 0.064722
vn 0.000000 -0.998312 0.058087
vn 0.991595 0.000000 -0.129381
vn 0.972029 0.000000 -0.234860
vn 0.972029 0.000000 -0.234860
vn 0.992581 0.054577 -0.108646
vn -1.000000 0.000000 0.000000
vn -0.998856 0.000000 0.047816
vn -0.996536 0.054794 0.062563
vn -1.000000 0.000000 0.000000
vn 0.000000 -0.981945 0.189168
vn 0.000000 -0.977475 0.211050
vn 0.901667 0.165567 0.399479
vn 0.916031 0.000000 0.401108
vn 0.000000 0.979279 0.202515
vn 0.000000 0.979279 0.202515
vn 0.000000 0.979279 0.202515
vn 0.000000 0.979279 0.202515
vn -0.977242 0.000000 0.212130
vn -0.955402 0.176629 0.236662
vn 0.000000 -0.305457 0.952206
vn 0.000000 -0.305457 0.952206
vn 0.074131 0.000000 0.997249
vn 0.074131 0.000000 0.997249
vn 0.000000 0.644775 0.764373
vn 0.000000 0.585493 0.810678
vn 0.000000 0.305457 0.952206
vn 0.000000 0.305457 0.952206
vn -0.305459 0.000000 0.952205
vn -0.305459 0.000000 0.952205
vn 0.000000 0.000000 0.000000
vn 0.000000 0.000000 0.000000
vn 0.000000 0.000000 0.000000
vn 0.000000 0.000000 0.000000
vn 0.000000 0.000000 0.000000
vn 0.000000 0.000000 0.000000
vn 0.000000 0.000000 0.000000
vn 0.000000 0.000000 0.000000
vn 0.000000 0.000000 0.000000
vn 0.000000 0.000000 0.000000
vn 0.000000 0.000000 0.000000
vn 0.000000 0.000000 0.000000
vn 0.000000 0.000000 0.000000
vn 0.000000 0.000000 0.000000
vn 0.000000 0.000000 0.000000
vn 0.000000 0.000000 0.000000
vn 0.000000 -0.443236 0.896405
vn 0.000000 -0.443236 0.896405
vn 0.000000 -0.443236 0.896405
vn 0.000000 -0.443236 0.896405
vn 0.443236 0.000000 0.896405
vn 0.443236 0.000000 0.896405
vn 0.443236 0.000000 0.896405
vn 0.443236 0.000000 0.896405
vn 0.000000 0.443236 0.896405
vn 0.000000 0.443236 0.896405
vn 0.000000 0.443236 0.896405
vn 0.000000 0.443236 0.896405
vn -0.443236 0.000000 0.896405
vn -0.443236 0.000000 0.896405
vn -0.443236 0.000000 0.896405
vn -0.443236 0.000000 0.896405
vn 0.000000 0.881309 -0.472540
vn 0.000000 0.881309 -0.472540
vn 0.000000 0.881309 -0.472540
vn 0.000000 0.881309 -0.472540
vn -0.512387 0.822314 0.247506
vn -0.512387 0.822314 0.247506
vn 0.000000 0.676698 0.736261
vn 0.000000 0.676698 0.736261
vn 0.512387 0.822314 0.247506
vn 0.512387 0.822314 0.247506
s off
g pCube1
usemtl initialShadingGroup
f 21/27/1 22/28/2 23/29/3 24/30/4
f 3/3/5 4/4/6 6/6/7 5/5/8
f 5/5/9 6/6/10 8/8/11 7/7/12
s 1
f 7/7/13 8/8/14 2/10/15 1/9/16
s 2
f 2/2/17 8/11/18 6/12/19 4/4/20
s 3
f 7/13/21 1/1/22 3/3/23 5/14/24
s 1
f 1/1/16 2/2/15 10/16/25 9/15/26
s 2
f 2/2/17 4/4/20 11/17/27 10/16/28
s off
f 26/31/29 25/32/30 27/33/31 28/34/32
s 3
f 3/3/23 1/1/22 9/15/33 12/18/34
s 1
f 9/15/26 10/16/25 14/20/35 13/19/36
s 2
f 10/16/28 11/17/27 15/21/37 14/20/38
s 4
f 11/17/39 12/18/40 16/22/41 15/21/42
s 3
f 12/18/34 9/15/33 13/19/43 16/22/44
s off
f 13/19/45 14/20/46 18/24/47 17/23/48
f 14/20/49 15/21/50 19/25/51 18/24/52
f 15/21/53 16/22/54 20/26/55 19/25/56
f 16/22/57 13/19/58 17/23/59 20/26/60
f 17/23/61 18/24/62 22/28/63 21/27/64
f 18/24/65 19/25/66 23/29/67 22/28/68
f 19/25/69 20/26/70 24/30/71 23/29/72
f 20/26/73 17/23/74 21/27/75 24/30/76
f 4/4/77 3/3/78 25/32/79 26/31/80
s 3
f 3/3/23 12/18/34 27/33/81 25/32/82
s 4
f 12/18/40 11/17/39 28/34/83 27/33/84
s 2
f 11/17/27 4/4/20 26/31/85 28/34/86
