# 3ds Max Wavefront OBJ Exporter v0.97b - (c)2007 guruware
# File Created: 25.11.2016 14:47:09

mtllib tower3.mtl

#
# object tower3
#

v  -1.2795 -15.5608 56.4334
v  -8.4921 0.4825 56.4334
v  -15.9367 -15.5608 56.4334
v  -0.5351 18.7592 57.0074
v  -0.5351 -16.3053 57.0074
v  -0.5351 -16.3053 19.0025
v  -0.5351 18.7592 19.0025
v  -9.2366 18.7592 57.0074
v  -9.2366 18.7592 0.0000
v  -9.2366 1.2269 0.0000
v  -9.2366 1.2269 57.0074
v  -16.6812 -16.3053 57.0074
v  -16.6812 -16.3053 0.0000
v  -16.6812 1.2269 57.0074
v  -16.6812 1.2269 0.0000
v  -15.9367 0.4825 56.4334
v  16.6812 -18.7592 -0.0000
v  16.6812 18.7592 -0.0000
v  16.6812 18.7592 19.0025
v  16.6812 -18.7592 19.0025
v  -0.5351 -16.3053 0.0000
v  0.2094 18.0147 18.4285
v  0.2094 -16.3053 18.4285
v  15.9367 18.0147 18.4285
v  -0.5351 -18.7592 19.0025
v  -0.5351 -18.7592 0.0000
v  15.9367 -18.0147 18.4285
v  0.2094 -18.0147 18.4285
v  -1.2795 18.0147 56.4334
v  -8.4921 18.0147 56.4334
v  -1.2795 18.0147 57.0074
v  -1.2795 -15.5608 57.0074
v  -8.4921 18.0147 57.0074
v  -8.4921 0.4825 57.0074
v  -15.9367 0.4825 57.0074
v  -15.9367 -15.5608 57.0074
v  0.2094 -16.3053 19.0025
v  0.2094 18.0147 19.0025
v  0.2094 -18.0147 19.0025
v  15.9367 -18.0147 19.0025
v  15.9367 18.0147 19.0025
# 41 vertices

vn 0.0000 0.0000 1.0000
vn 1.0000 0.0000 -0.0000
vn -0.0000 1.0000 0.0000
vn -1.0000 -0.0000 0.0000
vn 0.0000 -1.0000 0.0000
vn 1.0000 0.0000 0.0000
vn -0.0000 0.0000 1.0000
# 7 vertex normals

vt 0.9709 0.0242 0.0000
vt 0.9105 0.1586 0.0000
vt 0.8481 0.0242 0.0000
vt 0.6715 0.3261 0.0000
vt 0.3786 0.3261 0.0000
vt 0.3786 0.0168 0.0000
vt 0.6715 0.0168 0.0000
vt 0.2412 0.9910 0.0000
vt 0.1686 0.9911 0.0000
vt 0.1686 0.6818 0.0000
vt 0.2412 0.5271 0.0000
vt 0.3875 0.5270 0.0000
vt 0.3875 0.9909 0.0000
vt 0.6709 0.6808 0.0000
vt 0.6709 0.9901 0.0000
vt 0.5360 0.9904 0.0000
vt 0.5360 0.5264 0.0000
vt 0.3895 0.9906 0.0000
vt 0.3895 0.5267 0.0000
vt 0.8481 0.1586 0.0000
vt 0.9117 0.4917 0.0000
vt 0.9740 0.4917 0.0000
vt 0.9740 0.9694 0.0000
vt 0.9117 0.9694 0.0000
vt 0.3548 0.3544 0.0000
vt 0.6680 0.3552 0.0000
vt 0.6680 0.5099 0.0000
vt 0.3548 0.5091 0.0000
vt 0.6709 0.5262 0.0000
vt 0.0248 0.6818 0.0000
vt 0.0248 0.5272 0.0000
vt 0.9640 0.0172 0.0000
vt 0.9640 0.3048 0.0000
vt 0.8322 0.0172 0.0000
vt 0.2110 0.5082 0.0000
vt 0.2110 0.3536 0.0000
vt 0.8916 0.8044 0.0000
vt 0.8916 0.9636 0.0000
vt 0.8710 0.9636 0.0000
vt 0.8710 0.8044 0.0000
vt 0.8322 0.3191 0.0000
vt 0.9640 0.3191 0.0000
vt 0.9709 0.3055 0.0000
vt 0.9105 0.3055 0.0000
vt 0.9616 0.6878 0.0000
vt 0.9616 0.9816 0.0000
vt 0.9554 0.9754 0.0000
vt 0.9554 0.6940 0.0000
vt 0.8887 0.9816 0.0000
vt 0.8950 0.9754 0.0000
vt 0.8887 0.8347 0.0000
vt 0.8950 0.8285 0.0000
vt 0.8264 0.8347 0.0000
vt 0.8326 0.8285 0.0000
vt 0.8264 0.6878 0.0000
vt 0.8326 0.6940 0.0000
vt 0.9848 0.9912 0.0000
vt 0.9848 0.7098 0.0000
vt 0.9896 0.7098 0.0000
vt 0.9896 0.9912 0.0000
vt 0.8854 0.7029 0.0000
vt 0.9459 0.7029 0.0000
vt 0.9459 0.7077 0.0000
vt 0.8854 0.7077 0.0000
vt 0.9416 0.8039 0.0000
vt 0.9416 0.9508 0.0000
vt 0.9368 0.9508 0.0000
vt 0.9368 0.8039 0.0000
vt 0.9477 0.9194 0.0000
vt 0.9477 0.8570 0.0000
vt 0.9525 0.8570 0.0000
vt 0.9525 0.9194 0.0000
vt 0.9410 0.9612 0.0000
vt 0.9410 0.8267 0.0000
vt 0.9459 0.8267 0.0000
vt 0.9459 0.9612 0.0000
vt 0.9607 0.9799 0.0000
vt 0.9607 0.8570 0.0000
vt 0.9655 0.8570 0.0000
vt 0.9655 0.9799 0.0000
vt 0.9888 0.6752 0.0000
vt 0.9876 0.9690 0.0000
vt 0.9813 0.9690 0.0000
vt 0.9825 0.6814 0.0000
vt 0.9875 0.9896 0.0000
vt 0.9813 0.9833 0.0000
vt 0.8432 0.9890 0.0000
vt 0.8495 0.9827 0.0000
vt 0.8445 0.6746 0.0000
vt 0.8508 0.6809 0.0000
vt 0.9781 0.9897 0.0000
vt 0.9781 0.7021 0.0000
vt 0.9829 0.7021 0.0000
vt 0.9829 0.9897 0.0000
vt 0.9781 0.6878 0.0000
vt 0.9829 0.6878 0.0000
vt 0.9737 0.9888 0.0000
vt 0.9737 0.8570 0.0000
vt 0.9785 0.8570 0.0000
vt 0.9785 0.9888 0.0000
vt 0.9639 0.9884 0.0000
vt 0.9639 0.6865 0.0000
vt 0.9687 0.6865 0.0000
vt 0.9687 0.9884 0.0000
vt 0.9868 0.9888 0.0000
vt 0.9868 0.8570 0.0000
vt 0.9916 0.8570 0.0000
vt 0.9916 0.9888 0.0000
# 108 texture coords

g tower3
usemtl Material__27
s 4
f 1/1/1 2/2/1 3/3/1 
s 8
f 4/4/2 5/5/2 6/6/2 7/7/2 
s 16
f 8/8/3 4/9/3 7/10/3 9/11/3 
s 32
f 10/12/4 11/13/4 8/8/4 9/11/4 
s 64
f 6/14/5 5/15/5 12/16/5 13/17/5 
s 32
f 12/16/4 14/18/4 15/19/4 13/17/4 
s off
f 3/3/1 2/2/1 16/20/1 
f 10/21/3 15/22/3 14/23/3 11/24/3 
s 8
f 17/25/6 18/26/6 19/27/6 20/28/6 
s 64
f 13/17/5 21/29/5 6/14/5 
s off
f 9/11/3 7/10/3 19/30/3 18/31/3 
f 22/32/7 23/33/7 24/34/7 
f 25/35/5 26/36/5 17/25/5 20/28/5 
f 6/37/4 21/38/4 26/39/4 25/40/4 
f 27/41/1 24/34/1 23/33/1 28/42/1 
s 4
f 29/43/1 30/44/1 2/2/1 1/1/1 
s off
f 5/45/1 4/46/1 31/47/1 32/48/1 
f 4/46/1 8/49/1 33/50/1 31/47/1 
f 8/49/1 11/51/1 34/52/1 33/50/1 
f 11/51/1 14/53/1 35/54/1 34/52/1 
f 14/53/1 12/55/1 36/56/1 35/54/1 
f 12/55/1 5/45/1 32/48/1 36/56/1 
f 32/57/4 31/58/4 29/59/4 1/60/4 
f 31/61/5 33/62/5 30/63/5 29/64/5 
f 33/65/6 34/66/6 2/67/6 30/68/6 
f 34/69/5 35/70/5 16/71/5 2/72/5 
f 35/73/6 36/74/6 3/75/6 16/76/6 
f 36/77/3 32/78/3 1/79/3 3/80/3 
f 7/81/1 6/82/1 37/83/1 38/84/1 
f 6/82/1 25/85/1 39/86/1 37/83/1 
f 25/85/1 20/87/1 40/88/1 39/86/1 
f 20/87/7 19/89/7 41/90/7 40/88/7 
f 19/89/1 7/81/1 38/84/1 41/90/1 
f 38/91/6 37/92/6 23/93/6 22/94/6 
f 37/92/6 39/95/6 28/96/6 23/93/6 
f 39/97/3 40/98/3 27/99/3 28/100/3 
f 40/101/4 41/102/4 24/103/4 27/104/4 
f 41/105/5 38/106/5 22/107/5 24/108/5 
# 34 polygons - 4 triangles

