# 3ds Max Wavefront OBJ Exporter v0.97b - (c)2007 guruware
# File Created: 25.11.2016 14:53:45

mtllib tower24.mtl

#
# object tower24
#

v  5.2955 -12.1306 17.6639
v  0.0838 -0.5379 17.6639
v  -5.2955 -12.1306 17.6639
v  5.8335 12.6685 17.9631
v  5.8335 -12.6685 17.9631
v  5.8335 -12.6685 -0.0000
v  5.8335 12.6685 0.0000
v  -0.4541 12.6685 17.9631
v  -0.4541 12.6685 0.0000
v  -0.4541 -0.0000 0.0000
v  -0.4541 -0.0000 17.9631
v  -5.8335 -12.6685 17.9631
v  -5.8335 -12.6685 -0.0000
v  -5.8335 -0.0000 17.9631
v  -5.8335 -0.0000 0.0000
v  -5.2955 -0.5379 17.6639
v  5.2955 12.1306 17.6639
v  0.0838 12.1306 17.6639
v  5.2955 12.1306 17.9631
v  5.2955 -12.1306 17.9631
v  0.0838 12.1306 17.9631
v  0.0838 -0.5379 17.9631
v  -5.2955 -0.5379 17.9631
v  -5.2955 -12.1306 17.9631
v  1.3808 6.4589 18.4796
v  3.8689 6.4589 18.4796
v  3.8689 8.9470 18.4796
v  1.3808 8.9470 18.4796
v  1.3808 8.9470 17.6089
v  1.3808 6.4589 17.6089
v  3.8689 6.4589 17.6089
v  3.8689 8.9470 17.6089
v  1.3808 -10.9197 18.4796
v  3.8689 -10.9197 18.4796
v  3.8689 -8.4316 18.4796
v  1.3808 -8.4316 18.4796
v  1.3808 -8.4316 17.6089
v  1.3808 -10.9197 17.6089
v  3.8689 -10.9197 17.6089
v  3.8689 -8.4316 17.6089
v  -3.6532 -10.9197 18.4796
v  -1.1651 -10.9197 18.4796
v  -1.1651 -8.4316 18.4796
v  -3.6532 -8.4316 18.4796
v  -3.6532 -8.4316 17.6089
v  -3.6532 -10.9197 17.6089
v  -1.1651 -10.9197 17.6089
v  -1.1651 -8.4316 17.6089
# 48 vertices

vn 0.0000 0.0000 1.0000
vn 1.0000 0.0000 -0.0000
vn -0.0000 1.0000 -0.0000
vn -1.0000 -0.0000 0.0000
vn 0.0000 -1.0000 -0.0000
vn 0.0000 -1.0000 0.0000
vn 1.0000 0.0000 0.0000
vn -0.0000 1.0000 0.0000
vn -1.0000 0.0000 0.0000
vn 1.0000 -0.0000 0.0000
# 10 vertex normals

vt 0.9709 0.0242 0.0000
vt 0.9105 0.1586 0.0000
vt 0.8481 0.0242 0.0000
vt 0.5080 0.4893 0.0000
vt 0.0257 0.4893 0.0000
vt 0.0257 0.0152 0.0000
vt 0.5080 0.0152 0.0000
vt 0.2108 0.9791 0.0000
vt 0.0913 0.9792 0.0000
vt 0.0913 0.5051 0.0000
vt 0.2108 0.5050 0.0000
vt 0.4518 0.5049 0.0000
vt 0.4518 0.9789 0.0000
vt 0.9184 0.5052 0.0000
vt 0.9184 0.9793 0.0000
vt 0.6965 0.9791 0.0000
vt 0.6965 0.5050 0.0000
vt 0.4556 0.9788 0.0000
vt 0.4556 0.5048 0.0000
vt 0.8481 0.1586 0.0000
vt 0.7537 0.0376 0.0000
vt 0.8107 0.0376 0.0000
vt 0.8107 0.4553 0.0000
vt 0.7537 0.4553 0.0000
vt 0.9709 0.3055 0.0000
vt 0.9105 0.3055 0.0000
vt 0.6840 0.2049 0.0000
vt 0.6840 0.4618 0.0000
vt 0.6783 0.4564 0.0000
vt 0.6783 0.2103 0.0000
vt 0.6173 0.4618 0.0000
vt 0.6230 0.4564 0.0000
vt 0.6173 0.3333 0.0000
vt 0.6230 0.3279 0.0000
vt 0.5602 0.3333 0.0000
vt 0.5659 0.3279 0.0000
vt 0.5602 0.2049 0.0000
vt 0.5659 0.2103 0.0000
vt 0.7052 0.4702 0.0000
vt 0.7052 0.2241 0.0000
vt 0.7096 0.2241 0.0000
vt 0.7096 0.4702 0.0000
vt 0.6143 0.2181 0.0000
vt 0.6695 0.2181 0.0000
vt 0.6695 0.2223 0.0000
vt 0.6143 0.2223 0.0000
vt 0.6656 0.3064 0.0000
vt 0.6656 0.4349 0.0000
vt 0.6612 0.4349 0.0000
vt 0.6612 0.3064 0.0000
vt 0.6712 0.4074 0.0000
vt 0.6712 0.3529 0.0000
vt 0.6756 0.3529 0.0000
vt 0.6756 0.4074 0.0000
vt 0.6651 0.4439 0.0000
vt 0.6651 0.3264 0.0000
vt 0.6695 0.3264 0.0000
vt 0.6695 0.4439 0.0000
vt 0.6831 0.4603 0.0000
vt 0.6831 0.3529 0.0000
vt 0.6875 0.3529 0.0000
vt 0.6875 0.4603 0.0000
vt 0.8709 0.3685 0.0000
vt 0.9646 0.3685 0.0000
vt 0.9646 0.4659 0.0000
vt 0.8709 0.4659 0.0000
# 66 texture coords

g tower24
usemtl Material__29
s 4
f 1/1/1 2/2/1 3/3/1 
s 8
f 4/4/2 5/5/2 6/6/2 7/7/2 
s 16
f 8/8/3 4/9/3 7/10/3 9/11/3 
s 32
f 10/12/4 11/13/4 8/8/4 9/11/4 
s 64
f 6/14/5 5/15/5 12/16/5 13/17/5 
s 32
f 12/16/4 14/18/4 15/19/4 13/17/4 
s off
f 3/3/1 2/2/1 16/20/1 
f 10/21/3 15/22/3 14/23/3 11/24/3 
s 4
f 17/25/1 18/26/1 2/2/1 1/1/1 
s off
f 5/27/1 4/28/1 19/29/1 20/30/1 
f 4/28/1 8/31/1 21/32/1 19/29/1 
f 8/31/1 11/33/1 22/34/1 21/32/1 
f 11/33/1 14/35/1 23/36/1 22/34/1 
f 14/35/1 12/37/1 24/38/1 23/36/1 
f 12/37/1 5/27/1 20/30/1 24/38/1 
f 20/39/4 19/40/4 17/41/4 1/42/4 
f 19/43/6 21/44/6 18/45/6 17/46/6 
f 21/47/7 22/48/7 2/49/7 18/50/7 
f 22/51/6 23/52/6 16/53/6 2/54/6 
f 23/55/7 24/56/7 3/57/7 16/58/7 
f 24/59/8 20/60/8 1/61/8 3/62/8 
s 1
f 25/63/1 26/64/1 27/65/1 28/66/1 
s off
f 29/66/4 30/63/4 25/63/4 28/66/4 
f 30/63/6 31/64/6 26/64/6 25/63/6 
f 31/64/7 32/65/7 27/65/7 26/64/7 
f 32/65/8 29/66/8 28/66/8 27/65/8 
s 1
f 33/63/1 34/64/1 35/65/1 36/66/1 
s off
f 37/66/9 38/63/9 33/63/9 36/66/9 
f 38/63/6 39/64/6 34/64/6 33/63/6 
f 39/64/10 40/65/10 35/65/10 34/64/10 
f 40/65/8 37/66/8 36/66/8 35/65/8 
s 1
f 41/63/1 42/64/1 43/65/1 44/66/1 
s off
f 45/66/9 46/63/9 41/63/9 44/66/9 
f 46/63/6 47/64/6 42/64/6 41/63/6 
f 47/64/7 48/65/7 43/65/7 42/64/7 
f 48/65/8 45/66/8 44/66/8 43/65/8 
# 34 polygons - 2 triangles

