# 3ds Max Wavefront OBJ Exporter v0.97b - (c)2007 guruware
# File Created: 25.11.2016 14:49:32

mtllib tower10.mtl

#
# object tower10
#

v  -11.1085 5.7887 25.5906
v  -11.1085 -5.7887 25.5906
v  11.1085 -5.7887 25.5906
v  11.1085 5.7887 25.5906
v  -12.1588 7.0745 0.0000
v  -12.1588 -7.0745 0.0000
v  -12.1588 -7.0745 26.5771
v  -12.1588 7.0745 26.5771
v  12.1588 -7.0745 0.0000
v  12.1588 -7.0745 26.5771
v  12.1588 7.0745 0.0000
v  12.1588 7.0745 26.5771
v  -11.1085 -5.7887 26.5771
v  -11.1085 5.7887 26.5771
v  11.1085 -5.7887 26.5771
v  11.1085 5.7887 26.5771
# 16 vertices

vn 0.0000 0.0000 1.0000
vn -1.0000 0.0000 0.0000
vn -0.0000 -1.0000 0.0000
vn 1.0000 -0.0000 0.0000
vn 0.0000 1.0000 0.0000
# 5 vertex normals

vt 0.7254 0.1931 0.0000
vt 0.7254 0.0463 0.0000
vt 0.9817 0.0463 0.0000
vt 0.9817 0.1931 0.0000
vt 0.0128 0.3560 0.0000
vt 0.3915 0.3565 0.0000
vt 0.3915 0.9918 0.0000
vt 0.0128 0.9913 0.0000
vt 0.9838 0.3569 0.0000
vt 0.9838 0.9922 0.0000
vt 0.0110 0.3569 0.0000
vt 0.3915 0.3568 0.0000
vt 0.3915 0.9906 0.0000
vt 0.0110 0.9892 0.0000
vt 0.9838 0.3568 0.0000
vt 0.9838 0.9921 0.0000
vt 0.0109 0.1790 0.0000
vt 0.0109 -0.0004 0.0000
vt 0.0230 0.0159 0.0000
vt 0.0230 0.1627 0.0000
vt 0.2914 -0.0004 0.0000
vt 0.2793 0.0159 0.0000
vt 0.2914 0.1790 0.0000
vt 0.2793 0.1627 0.0000
vt 0.1979 0.1278 0.0000
vt 0.0512 0.1278 0.0000
vt 0.0512 0.1102 0.0000
vt 0.1979 0.1102 0.0000
vt 0.0206 0.0349 0.0000
vt 0.2770 0.0349 0.0000
vt 0.2770 0.0526 0.0000
vt 0.0206 0.0526 0.0000
vt 0.1979 0.1528 0.0000
vt 0.0512 0.1528 0.0000
vt 0.0512 0.1352 0.0000
vt 0.1979 0.1352 0.0000
vt 0.0230 0.0669 0.0000
vt 0.2794 0.0669 0.0000
vt 0.2794 0.0846 0.0000
vt 0.0230 0.0846 0.0000
# 40 texture coords

g tower10
usemtl Material__29jj
s 4
f 1/1/1 2/2/1 3/3/1 4/4/1 
s 8
f 5/5/2 6/6/2 7/7/2 8/8/2 
s 16
f 6/6/3 9/9/3 10/10/3 7/7/3 
s 32
f 9/11/4 11/12/4 12/13/4 10/14/4 
s 64
f 11/12/5 5/15/5 8/16/5 12/13/5 
s off
f 8/17/1 7/18/1 13/19/1 14/20/1 
f 7/18/1 10/21/1 15/22/1 13/19/1 
f 10/21/1 12/23/1 16/24/1 15/22/1 
f 12/23/1 8/17/1 14/20/1 16/24/1 
f 14/25/4 13/26/4 2/27/4 1/28/4 
f 13/29/5 15/30/5 3/31/5 2/32/5 
f 15/33/2 16/34/2 4/35/2 3/36/2 
f 16/37/3 14/38/3 1/39/3 4/40/3 
# 13 polygons

