# 3ds Max Wavefront OBJ Exporter v0.97b - (c)2007 guruware
# File Created: 25.11.2016 14:51:46

mtllib tower16.mtl

#
# object tower16
#

v  22.8275 5.1842 27.2559
v  22.8275 -5.1842 27.2559
v  22.8275 -5.1842 13.2168
v  22.8275 5.1842 13.2168
v  -20.7926 10.7001 27.2559
v  -20.7926 10.7001 13.2168
v  -22.6609 -9.3530 27.2559
v  -22.6609 9.3530 27.2559
v  -22.6609 9.3530 13.2168
v  -22.6609 -9.3530 13.2168
v  -20.7926 -10.7001 27.2559
v  -20.7926 -10.7001 13.2168
v  22.8275 -5.1842 56.0177
v  22.8275 5.1842 56.0177
v  14.2656 3.8877 56.0177
v  14.2656 -3.8877 56.0177
v  -20.7926 10.7001 56.0177
v  -18.4461 8.0243 56.0177
v  -22.6609 9.3530 56.0177
v  -22.6609 -9.3530 56.0177
v  -19.8471 -7.0140 56.0177
v  -19.8471 7.0140 56.0177
v  -20.7926 -10.7001 56.0177
v  -18.4461 -8.0243 56.0177
v  14.2656 3.8877 54.8355
v  14.2656 -3.8877 54.8355
v  -18.4461 8.0243 54.8355
v  -19.8471 -7.0140 54.8355
v  -19.8471 7.0140 54.8355
v  -18.4461 -8.0243 54.8355
v  22.8275 -5.1842 44.9811
v  22.8275 5.1842 44.9811
v  22.8275 5.1842 42.1264
v  22.8275 -5.1842 42.1264
v  22.8275 -5.1842 28.7617
v  22.8275 5.1842 28.7617
v  22.8275 -5.1842 0.0000
v  22.8275 5.1842 0.0000
v  22.8275 5.1842 11.7110
v  22.8275 -5.1842 11.7110
v  -20.7926 10.7001 44.9811
v  -20.7926 10.7001 42.1264
v  -20.7926 10.7001 28.7617
v  -20.7926 10.7001 0.0000
v  -20.7926 10.7001 11.7110
v  -22.6609 9.3530 44.9811
v  -22.6609 -9.3530 44.9811
v  -22.6609 -9.3530 42.1264
v  -22.6609 9.3530 42.1264
v  -22.6609 9.3530 28.7617
v  -22.6609 -9.3530 28.7617
v  -22.6609 9.3530 0.0000
v  -22.6609 -9.3530 0.0000
v  -22.6609 -9.3530 11.7110
v  -22.6609 9.3530 11.7110
v  -20.7926 -10.7001 44.9811
v  -20.7926 -10.7001 42.1264
v  -20.7926 -10.7001 28.7617
v  -20.7926 -10.7001 0.0000
v  -20.7926 -10.7001 11.7110
v  23.6650 5.7880 27.2559
v  23.6650 5.7880 28.7617
v  23.6650 -5.7880 28.7617
v  23.6650 -5.7880 27.2559
v  23.6650 -5.7880 13.2168
v  23.6650 -5.7880 11.7110
v  23.6650 5.7880 11.7110
v  23.6650 5.7880 13.2168
v  -21.0983 11.5898 27.2559
v  -21.0983 11.5898 28.7617
v  -21.0983 11.5898 11.7110
v  -21.0983 11.5898 13.2168
v  -23.6650 -9.7390 27.2559
v  -23.6650 -9.7390 28.7617
v  -23.6650 9.7390 28.7617
v  -23.6650 9.7390 27.2559
v  -23.6650 9.7390 13.2168
v  -23.6650 9.7390 11.7110
v  -23.6650 -9.7390 11.7110
v  -23.6650 -9.7390 13.2168
v  -21.0983 -11.5898 28.7617
v  -21.0983 -11.5898 27.2559
v  -21.0983 -11.5898 13.2168
v  -21.0983 -11.5898 11.7110
v  23.6650 5.7880 42.1264
v  23.6650 5.7880 44.9811
v  23.6650 -5.7880 44.9811
v  23.6650 -5.7880 42.1264
v  -21.0983 11.5898 42.1264
v  -21.0983 11.5898 44.9811
v  -23.6650 -9.7390 42.1264
v  -23.6650 -9.7390 44.9811
v  -23.6650 9.7390 44.9811
v  -23.6650 9.7390 42.1264
v  -21.0983 -11.5898 44.9811
v  -21.0983 -11.5898 42.1264
# 96 vertices

vn 1.0000 0.0000 0.0000
vn 0.1492 0.9888 0.0000
vn -1.0000 -0.0000 0.0000
vn 0.1492 -0.9888 0.0000
vn -0.6522 0.7580 0.0000
vn -0.6522 -0.7580 0.0000
vn 0.0000 0.0000 1.0000
vn -0.1492 -0.9888 0.0000
vn -0.1492 0.9888 0.0000
vn 0.6522 0.7580 0.0000
vn 0.6522 -0.7580 0.0000
vn 0.1528 0.9883 0.0000
vn 0.1528 -0.9883 0.0000
vn 0.0000 0.0000 -1.0000
vn -0.0000 0.0000 1.0000
vn -0.0000 -0.0000 1.0000
vn 0.0000 -0.0000 -1.0000
# 17 vertex normals

vt 0.9339 0.7960 0.0000
vt 0.7916 0.7960 0.0000
vt 0.7916 0.6390 0.0000
vt 0.9339 0.6390 0.0000
vt 0.7921 0.7961 0.0000
vt 0.2900 0.7961 0.0000
vt 0.2900 0.6391 0.0000
vt 0.7921 0.6391 0.0000
vt 0.2683 0.7961 0.0000
vt 0.0115 0.7963 0.0000
vt 0.0115 0.6393 0.0000
vt 0.2683 0.6392 0.0000
vt 0.2896 0.7960 0.0000
vt 0.2896 0.6391 0.0000
vt 0.8136 0.7961 0.0000
vt 0.8136 0.6391 0.0000
vt 0.6194 0.5803 0.0000
vt 0.6194 0.5060 0.0000
vt 0.6709 0.5153 0.0000
vt 0.6709 0.5710 0.0000
vt 0.8815 0.4664 0.0000
vt 0.8674 0.4856 0.0000
vt 0.8927 0.4761 0.0000
vt 0.8927 0.6102 0.0000
vt 0.8758 0.5934 0.0000
vt 0.8758 0.4929 0.0000
vt 0.8815 0.6199 0.0000
vt 0.8674 0.6007 0.0000
vt 0.8571 0.5146 0.0000
vt 0.8013 0.5146 0.0000
vt 0.8013 0.5075 0.0000
vt 0.8571 0.5075 0.0000
vt 0.6710 0.5377 0.0000
vt 0.8675 0.5377 0.0000
vt 0.8675 0.5448 0.0000
vt 0.6710 0.5448 0.0000
vt 0.7672 0.5230 0.0000
vt 0.8678 0.5230 0.0000
vt 0.8678 0.5301 0.0000
vt 0.7672 0.5301 0.0000
vt 0.6796 0.5573 0.0000
vt 0.8762 0.5573 0.0000
vt 0.8762 0.5644 0.0000
vt 0.6796 0.5644 0.0000
vt 0.6712 0.5573 0.0000
vt 0.6712 0.5644 0.0000
vt 0.8760 0.5377 0.0000
vt 0.8760 0.5448 0.0000
vt 0.9138 0.2092 0.0000
vt 0.9138 0.3243 0.0000
vt 0.7172 0.2946 0.0000
vt 0.7172 0.2389 0.0000
vt 0.9222 0.2164 0.0000
vt 0.9222 0.3170 0.0000
vt 0.9317 0.9841 0.0000
vt 0.7913 0.9837 0.0000
vt 0.7913 0.8461 0.0000
vt 0.9317 0.8460 0.0000
vt 0.9315 0.7972 0.0000
vt 0.7908 0.7973 0.0000
vt 0.7908 0.6405 0.0000
vt 0.9315 0.6404 0.0000
vt 0.5177 0.6212 0.0000
vt 0.3772 0.6212 0.0000
vt 0.3772 0.4962 0.0000
vt 0.5177 0.4962 0.0000
vt 0.7891 0.9831 0.0000
vt 0.2939 0.9831 0.0000
vt 0.2939 0.8461 0.0000
vt 0.7891 0.8461 0.0000
vt 0.7902 0.7974 0.0000
vt 0.2895 0.7973 0.0000
vt 0.2895 0.6405 0.0000
vt 0.7902 0.6406 0.0000
vt 0.5327 0.6161 0.0000
vt 0.0376 0.6161 0.0000
vt 0.0376 0.4912 0.0000
vt 0.5327 0.4912 0.0000
vt 0.2726 0.9831 0.0000
vt 0.0191 0.9828 0.0000
vt 0.0191 0.8464 0.0000
vt 0.2726 0.8463 0.0000
vt 0.2622 0.7971 0.0000
vt 0.0090 0.7970 0.0000
vt 0.0090 0.6402 0.0000
vt 0.2622 0.6403 0.0000
vt 0.2703 0.6161 0.0000
vt 0.0170 0.6161 0.0000
vt 0.0170 0.4912 0.0000
vt 0.2703 0.4912 0.0000
vt 0.2940 0.9834 0.0000
vt 0.2940 0.8462 0.0000
vt 0.2898 0.7972 0.0000
vt 0.2898 0.6404 0.0000
vt 0.5182 0.6147 0.0000
vt 0.0230 0.6147 0.0000
vt 0.0230 0.4898 0.0000
vt 0.5182 0.4898 0.0000
vt 0.8103 0.9831 0.0000
vt 0.8103 0.8461 0.0000
vt 0.8180 0.7975 0.0000
vt 0.8180 0.6407 0.0000
vt 0.0164 0.6161 0.0000
vt 0.0164 0.4912 0.0000
vt 0.5394 0.6147 0.0000
vt 0.5394 0.4898 0.0000
vt 0.8639 0.1015 0.0000
vt 0.8639 0.1105 0.0000
vt 0.7809 0.1105 0.0000
vt 0.7809 0.1015 0.0000
vt 0.7809 0.1274 0.0000
vt 0.7809 0.1184 0.0000
vt 0.8639 0.1184 0.0000
vt 0.8639 0.1274 0.0000
vt 0.4162 0.3737 0.0000
vt 0.4162 0.3647 0.0000
vt 0.6884 0.3647 0.0000
vt 0.6884 0.3737 0.0000
vt 0.6884 0.3322 0.0000
vt 0.6884 0.3412 0.0000
vt 0.4162 0.3412 0.0000
vt 0.4162 0.3322 0.0000
vt 0.5176 0.2709 0.0000
vt 0.5176 0.2619 0.0000
vt 0.6573 0.2619 0.0000
vt 0.6573 0.2709 0.0000
vt 0.6619 0.2381 0.0000
vt 0.6619 0.2471 0.0000
vt 0.5222 0.2471 0.0000
vt 0.5222 0.2381 0.0000
vt 0.4162 0.4062 0.0000
vt 0.4162 0.3971 0.0000
vt 0.6884 0.3971 0.0000
vt 0.6884 0.4062 0.0000
vt 0.9779 0.3808 0.0000
vt 0.9779 0.3898 0.0000
vt 0.7057 0.3898 0.0000
vt 0.7057 0.3808 0.0000
vt 0.5424 0.1139 0.0000
vt 0.5424 0.1229 0.0000
vt 0.5220 0.1229 0.0000
vt 0.5220 0.1139 0.0000
vt 0.5980 0.1395 0.0000
vt 0.5980 0.1304 0.0000
vt 0.6183 0.1304 0.0000
vt 0.6183 0.1395 0.0000
vt 0.4721 0.1055 0.0000
vt 0.4721 0.1145 0.0000
vt 0.4517 0.1145 0.0000
vt 0.4517 0.1055 0.0000
vt 0.4939 0.1229 0.0000
vt 0.4939 0.1139 0.0000
vt 0.5142 0.1139 0.0000
vt 0.5142 0.1229 0.0000
vt 0.8618 0.1306 0.0000
vt 0.8618 0.1477 0.0000
vt 0.7788 0.1477 0.0000
vt 0.7788 0.1306 0.0000
vt 0.7057 0.3573 0.0000
vt 0.7057 0.3402 0.0000
vt 0.9779 0.3402 0.0000
vt 0.9779 0.3573 0.0000
vt 0.5174 0.2353 0.0000
vt 0.5174 0.2182 0.0000
vt 0.6570 0.2182 0.0000
vt 0.6570 0.2353 0.0000
vt 0.4162 0.3087 0.0000
vt 0.4162 0.2916 0.0000
vt 0.6884 0.2916 0.0000
vt 0.6884 0.3087 0.0000
vt 0.4721 0.1223 0.0000
vt 0.4721 0.1395 0.0000
vt 0.4517 0.1395 0.0000
vt 0.4517 0.1223 0.0000
vt 0.5901 0.1223 0.0000
vt 0.5901 0.1395 0.0000
vt 0.5698 0.1395 0.0000
vt 0.5698 0.1223 0.0000
vt 0.9646 0.1575 0.0000
vt 0.9646 0.0832 0.0000
vt 0.9697 0.0788 0.0000
vt 0.9697 0.1618 0.0000
vt 0.7026 0.0436 0.0000
vt 0.7007 0.0372 0.0000
vt 0.6913 0.0533 0.0000
vt 0.6853 0.0505 0.0000
vt 0.6913 0.1874 0.0000
vt 0.6853 0.1902 0.0000
vt 0.7026 0.1970 0.0000
vt 0.7007 0.2034 0.0000
vt 0.3906 0.0854 0.0000
vt 0.3906 0.1598 0.0000
vt 0.3855 0.1641 0.0000
vt 0.3855 0.0811 0.0000
vt 0.6527 0.1993 0.0000
vt 0.6545 0.2057 0.0000
vt 0.6639 0.1897 0.0000
vt 0.6699 0.1924 0.0000
vt 0.6639 0.0555 0.0000
vt 0.6699 0.0528 0.0000
vt 0.6527 0.0459 0.0000
vt 0.6545 0.0395 0.0000
vt 0.3904 0.0877 0.0000
vt 0.3904 0.1621 0.0000
vt 0.3853 0.1664 0.0000
vt 0.3853 0.0834 0.0000
vt 0.6525 0.2016 0.0000
vt 0.6543 0.2080 0.0000
vt 0.6637 0.1920 0.0000
vt 0.6697 0.1947 0.0000
vt 0.6637 0.0578 0.0000
vt 0.6697 0.0551 0.0000
vt 0.6525 0.0482 0.0000
vt 0.6543 0.0418 0.0000
vt 0.9665 0.1552 0.0000
vt 0.9665 0.0809 0.0000
vt 0.9715 0.0766 0.0000
vt 0.9715 0.1596 0.0000
vt 0.7044 0.0414 0.0000
vt 0.7026 0.0350 0.0000
vt 0.6932 0.0510 0.0000
vt 0.6871 0.0482 0.0000
vt 0.6932 0.1851 0.0000
vt 0.6871 0.1879 0.0000
vt 0.7044 0.1948 0.0000
vt 0.7026 0.2012 0.0000
vt 0.9667 0.1598 0.0000
vt 0.9667 0.0854 0.0000
vt 0.9717 0.0811 0.0000
vt 0.9717 0.1641 0.0000
vt 0.7046 0.0459 0.0000
vt 0.7028 0.0395 0.0000
vt 0.6934 0.0556 0.0000
vt 0.6874 0.0528 0.0000
vt 0.6934 0.1897 0.0000
vt 0.6874 0.1924 0.0000
vt 0.7046 0.1993 0.0000
vt 0.7028 0.2057 0.0000
vt 0.3926 0.0854 0.0000
vt 0.3926 0.1598 0.0000
vt 0.3876 0.1641 0.0000
vt 0.3876 0.0811 0.0000
vt 0.6547 0.1993 0.0000
vt 0.6566 0.2057 0.0000
vt 0.6660 0.1897 0.0000
vt 0.6720 0.1924 0.0000
vt 0.6660 0.0555 0.0000
vt 0.6720 0.0528 0.0000
vt 0.6547 0.0459 0.0000
vt 0.6566 0.0395 0.0000
# 250 texture coords

g tower16
usemtl Material__29
s 8
f 1/1/1 2/2/1 3/3/1 4/4/1 
s 16
f 5/5/2 1/6/2 4/7/2 6/8/2 
s 32
f 7/9/3 8/10/3 9/11/3 10/12/3 
s 64
f 2/2/4 11/13/4 12/14/4 3/3/4 
s off
f 8/15/5 5/5/5 6/8/5 9/16/5 
f 11/13/6 7/9/6 10/12/6 12/14/6 
f 13/17/7 14/18/7 15/19/7 16/20/7 
f 14/18/7 17/21/7 18/22/7 15/19/7 
f 19/23/7 20/24/7 21/25/7 22/26/7 
f 23/27/7 13/17/7 16/20/7 24/28/7 
f 20/24/7 23/27/7 24/28/7 21/25/7 
f 17/21/7 19/23/7 22/26/7 18/22/7 
f 16/29/3 15/30/3 25/31/3 26/32/3 
f 15/33/8 18/34/8 27/35/8 25/36/8 
f 22/37/1 21/38/1 28/39/1 29/40/1 
f 24/41/9 16/42/9 26/43/9 30/44/9 
f 21/45/10 24/41/10 30/44/10 28/46/10 
f 18/34/11 22/47/11 29/48/11 27/35/11 
f 27/49/7 30/50/7 26/51/7 25/52/7 
f 27/49/7 29/53/7 28/54/7 30/50/7 
s 8
f 14/55/1 13/56/1 31/57/1 32/58/1 
f 33/59/1 34/60/1 35/61/1 36/62/1 
f 37/63/1 38/64/1 39/65/1 40/66/1 
s 16
f 17/67/2 14/68/2 32/69/2 41/70/2 
f 42/71/2 33/72/2 36/73/2 43/74/2 
f 38/75/2 44/76/2 45/77/2 39/78/2 
s 32
f 20/79/3 19/80/3 46/81/3 47/82/3 
f 48/83/3 49/84/3 50/85/3 51/86/3 
f 52/87/3 53/88/3 54/89/3 55/90/3 
s 64
f 13/56/4 23/91/4 56/92/4 31/57/4 
f 34/60/4 57/93/4 58/94/4 35/61/4 
f 59/95/4 37/96/4 40/97/4 60/98/4 
s off
f 19/99/5 17/67/5 41/70/5 46/100/5 
f 49/101/5 42/71/5 43/74/5 50/102/5 
f 44/76/5 52/103/5 55/104/5 45/77/5 
f 23/91/6 20/79/6 47/82/6 56/92/6 
f 57/93/6 48/83/6 51/86/6 58/94/6 
f 53/105/6 59/95/6 60/98/6 54/106/6 
s 8
f 61/107/1 62/108/1 63/109/1 64/110/1 
f 65/111/1 66/112/1 67/113/1 68/114/1 
s 16
f 69/115/12 70/116/12 62/117/12 61/118/12 
f 68/119/12 67/120/12 71/121/12 72/122/12 
s 32
f 73/123/3 74/124/3 75/125/3 76/126/3 
f 77/127/3 78/128/3 79/129/3 80/130/3 
s 64
f 64/131/13 63/132/13 81/133/13 82/134/13 
f 83/135/13 84/136/13 66/137/13 65/138/13 
s off
f 76/139/5 75/140/5 70/141/5 69/142/5 
f 72/143/5 71/144/5 78/145/5 77/146/5 
f 82/147/6 81/148/6 74/149/6 73/150/6 
f 80/151/6 79/152/6 84/153/6 83/154/6 
s 8
f 85/155/1 86/156/1 87/157/1 88/158/1 
s 16
f 89/159/12 90/160/12 86/161/12 85/162/12 
s 32
f 91/163/3 92/164/3 93/165/3 94/166/3 
s 64
f 88/167/13 87/168/13 95/169/13 96/170/13 
s off
f 94/171/5 93/172/5 90/173/5 89/174/5 
f 96/175/6 95/176/6 92/177/6 91/178/6 
f 2/179/14 1/180/14 61/181/14 64/182/14 
f 1/180/14 5/183/14 69/184/14 61/181/14 
f 5/183/14 8/185/14 76/186/14 69/184/14 
f 8/185/14 7/187/14 73/188/14 76/186/14 
f 7/187/14 11/189/14 82/190/14 73/188/14 
f 11/189/14 2/179/14 64/182/14 82/190/14 
f 36/191/7 35/192/7 63/193/7 62/194/7 
f 35/192/7 58/195/7 81/196/7 63/193/7 
f 58/195/7 51/197/7 74/198/7 81/196/7 
f 51/197/7 50/199/7 75/200/7 74/198/7 
f 50/199/7 43/201/7 70/202/7 75/200/7 
f 43/201/7 36/191/7 62/194/7 70/202/7 
f 4/203/15 3/204/15 65/205/15 68/206/15 
f 3/204/16 12/207/16 83/208/16 65/205/16 
f 12/207/7 10/209/7 80/210/7 83/208/7 
f 10/209/7 9/211/7 77/212/7 80/210/7 
f 9/211/7 6/213/7 72/214/7 77/212/7 
f 6/213/7 4/203/7 68/206/7 72/214/7 
f 40/215/17 39/216/17 67/217/17 66/218/17 
f 39/216/14 45/219/14 71/220/14 67/217/14 
f 45/219/14 55/221/14 78/222/14 71/220/14 
f 55/221/14 54/223/14 79/224/14 78/222/14 
f 54/223/14 60/225/14 84/226/14 79/224/14 
f 60/225/14 40/215/14 66/218/14 84/226/14 
f 34/227/14 33/228/14 85/229/14 88/230/14 
f 33/228/14 42/231/14 89/232/14 85/229/14 
f 42/231/14 49/233/14 94/234/14 89/232/14 
f 49/233/14 48/235/14 91/236/14 94/234/14 
f 48/235/14 57/237/14 96/238/14 91/236/14 
f 57/237/14 34/227/14 88/230/14 96/238/14 
f 32/239/7 31/240/7 87/241/7 86/242/7 
f 31/240/7 56/243/7 95/244/7 87/241/7 
f 56/243/7 47/245/7 92/246/7 95/244/7 
f 47/245/7 46/247/7 93/248/7 92/246/7 
f 46/247/7 41/249/7 90/250/7 93/248/7 
f 41/249/7 32/239/7 86/242/7 90/250/7 
# 92 polygons

