# 3ds Max Wavefront OBJ Exporter v0.97b - (c)2007 guruware
# File Created: 25.11.2016 14:46:44

mtllib tower2.mtl

#
# object tower2
#

v  -8.2818 -8.2818 0.0000
v  8.2818 -8.2818 0.0000
v  8.2818 -8.2818 44.0197
v  -8.2818 -8.2818 44.0197
v  8.2818 8.2818 0.0000
v  8.2818 8.2818 44.0197
v  -8.2818 8.2818 0.0000
v  -8.2818 8.2818 44.0197
v  6.2720 -6.2720 44.0197
v  -6.2720 -6.2720 44.0197
v  6.2720 6.2720 44.0197
v  -6.2720 6.2720 44.0197
v  6.2720 -6.2720 56.5084
v  -6.2720 -6.2720 56.5084
v  6.2720 6.2720 56.5084
v  -6.2720 6.2720 56.5084
v  4.2622 -4.2622 56.5084
v  -4.2622 -4.2622 56.5084
v  4.2622 4.2622 56.5084
v  -4.2622 4.2622 56.5084
v  4.2622 -4.2622 64.5151
v  -4.2622 -4.2622 64.5151
v  4.2622 4.2622 64.5151
v  -4.2622 4.2622 64.5151
v  0.0000 -0.0000 70.1439
# 25 vertices

vn 0.0000 -1.0000 -0.0000
vn 1.0000 0.0000 0.0000
vn 0.0000 1.0000 0.0000
vn -1.0000 0.0000 0.0000
vn 0.0000 0.0000 1.0000
vn 0.0000 -1.0000 0.0000
vn 0.0000 -0.8545 0.5195
vn 0.8545 0.0000 0.5195
vn 0.0000 0.8545 0.5195
vn -0.8545 0.0000 0.5195
# 10 vertex normals

vt 0.3535 0.0311 0.0000
vt 0.6809 0.0306 0.0000
vt 0.6809 0.9840 0.0000
vt 0.3535 0.9845 0.0000
vt 0.0259 0.0308 0.0000
vt 0.3534 0.0308 0.0000
vt 0.3534 0.9842 0.0000
vt 0.0259 0.9842 0.0000
vt 0.6810 0.0308 0.0000
vt 0.6810 0.9842 0.0000
vt 0.0260 0.0316 0.0000
vt 0.0260 0.9850 0.0000
vt 0.8132 0.8155 0.0000
vt 0.9872 0.8155 0.0000
vt 0.9661 0.8366 0.0000
vt 0.8343 0.8366 0.0000
vt 0.9872 0.9896 0.0000
vt 0.9661 0.9684 0.0000
vt 0.8132 0.9896 0.0000
vt 0.8343 0.9684 0.0000
vt 0.7070 0.9583 0.0000
vt 0.7070 0.8265 0.0000
vt 0.8704 0.8265 0.0000
vt 0.8704 0.9583 0.0000
vt 0.7071 0.9583 0.0000
vt 0.7071 0.8264 0.0000
vt 0.8705 0.8264 0.0000
vt 0.8705 0.9583 0.0000
vt 0.7068 0.9583 0.0000
vt 0.7068 0.8264 0.0000
vt 0.8703 0.8264 0.0000
vt 0.8703 0.9583 0.0000
vt 0.7069 0.9583 0.0000
vt 0.7069 0.8264 0.0000
vt 0.8704 0.8264 0.0000
vt 0.9660 0.9685 0.0000
vt 0.8342 0.9685 0.0000
vt 0.8553 0.9474 0.0000
vt 0.9449 0.9474 0.0000
vt 0.8342 0.8367 0.0000
vt 0.8553 0.8578 0.0000
vt 0.9660 0.8367 0.0000
vt 0.9449 0.8578 0.0000
vt 0.8976 0.7998 0.0000
vt 0.9872 0.7998 0.0000
vt 0.9872 0.9046 0.0000
vt 0.8976 0.9046 0.0000
vt 0.8977 0.7997 0.0000
vt 0.9873 0.7997 0.0000
vt 0.9873 0.9045 0.0000
vt 0.8977 0.9045 0.0000
vt 0.8978 0.7996 0.0000
vt 0.9874 0.7996 0.0000
vt 0.9874 0.9044 0.0000
vt 0.8978 0.9044 0.0000
vt 0.8979 0.7995 0.0000
vt 0.9874 0.7995 0.0000
vt 0.9874 0.9043 0.0000
vt 0.8979 0.9043 0.0000
vt 0.9424 0.9782 0.0000
vt 0.9425 0.9782 0.0000
vt 0.9426 0.9781 0.0000
vt 0.9426 0.9780 0.0000
# 63 texture coords

g tower2
usemtl Material__26
s 8
f 1/1/1 2/2/1 3/3/1 4/4/1 
s 16
f 2/5/2 5/6/2 6/7/2 3/8/2 
s 32
f 5/6/3 7/9/3 8/10/3 6/7/3 
s 64
f 7/11/4 1/1/4 4/4/4 8/12/4 
s off
f 4/13/5 3/14/5 9/15/5 10/16/5 
f 3/14/5 6/17/5 11/18/5 9/15/5 
f 6/17/5 8/19/5 12/20/5 11/18/5 
f 8/19/5 4/13/5 10/16/5 12/20/5 
f 10/21/6 9/22/6 13/23/6 14/24/6 
f 9/25/2 11/26/2 15/27/2 13/28/2 
f 11/29/3 12/30/3 16/31/3 15/32/3 
f 12/33/4 10/34/4 14/35/4 16/24/4 
f 14/36/5 13/37/5 17/38/5 18/39/5 
f 13/37/5 15/40/5 19/41/5 17/38/5 
f 15/40/5 16/42/5 20/43/5 19/41/5 
f 16/42/5 14/36/5 18/39/5 20/43/5 
f 18/44/6 17/45/6 21/46/6 22/47/6 
f 17/48/2 19/49/2 23/50/2 21/51/2 
f 19/52/3 20/53/3 24/54/3 23/55/3 
f 20/56/4 18/57/4 22/58/4 24/59/4 
f 22/47/7 21/46/7 25/60/7 
f 21/51/8 23/50/8 25/61/8 
f 23/55/9 24/54/9 25/62/9 
f 24/59/10 22/58/10 25/63/10 
# 20 polygons - 4 triangles

