# 3ds Max Wavefront OBJ Exporter v0.97b - (c)2007 guruware
# File Created: 25.11.2016 14:51:32

mtllib tower15.mtl

#
# object tower15k
#

v  6.1403 -14.2571 64.8706
v  -0.4680 0.4421 64.8706
v  -7.2889 -14.2571 64.8706
v  6.8224 17.1875 65.5304
v  6.8224 -14.9392 65.5304
v  6.8224 -14.9392 21.8435
v  6.8224 17.1875 21.8435
v  -1.1501 17.1875 65.5304
v  -1.1501 17.1875 0.0000
v  -1.1501 1.1242 0.0000
v  -1.1501 1.1242 65.5304
v  -7.9710 -14.9392 65.5304
v  -7.9710 -14.9392 0.0000
v  -7.9710 1.1242 65.5304
v  -7.9710 1.1242 0.0000
v  -7.2889 0.4421 64.8706
v  22.5962 -17.1875 -0.0000
v  22.5962 17.1875 -0.0000
v  22.5962 17.1875 21.8435
v  22.5962 -17.1875 21.8435
v  6.8224 -14.9392 0.0000
v  7.5044 16.5054 21.1836
v  7.5044 -14.9392 21.1836
v  21.9141 16.5054 21.1836
v  6.8224 -17.1875 21.8435
v  6.8224 -17.1875 0.0000
v  21.9141 -16.5054 21.1836
v  7.5044 -16.5054 21.1836
v  6.1403 16.5054 64.8706
v  -0.4680 16.5054 64.8706
v  6.1403 16.5054 65.5304
v  6.1403 -14.2571 65.5304
v  -0.4680 16.5054 65.5304
v  -0.4680 0.4421 65.5304
v  -7.2889 0.4421 65.5304
v  -7.2889 -14.2571 65.5304
v  7.5044 -14.9392 21.8435
v  7.5044 16.5054 21.8435
v  7.5044 -16.5054 21.8435
v  21.9141 -16.5054 21.8435
v  21.9141 16.5054 21.8435
v  -9.0307 -14.7863 21.5311
v  -15.3834 -0.6557 21.5311
v  -21.9405 -14.7863 21.5311
v  -8.3750 15.4421 21.8958
v  -8.3750 -15.4421 21.8958
v  -8.3750 -15.4420 -0.0000
v  -8.3750 15.4421 0.0000
v  -16.0391 15.4421 21.8958
v  -16.0391 15.4421 0.0000
v  -16.0391 -0.0000 0.0000
v  -16.0391 -0.0000 21.8958
v  -22.5962 -15.4421 21.8958
v  -22.5962 -15.4421 -0.0000
v  -22.5962 -0.0000 21.8958
v  -22.5962 -0.0000 0.0000
v  -21.9405 -0.6557 21.5311
v  -9.0307 14.7863 21.5311
v  -15.3834 14.7863 21.5311
v  -9.0307 14.7863 21.8958
v  -9.0307 -14.7863 21.8958
v  -15.3834 14.7863 21.8958
v  -15.3834 -0.6557 21.8958
v  -21.9405 -0.6557 21.8958
v  -21.9405 -14.7863 21.8958
# 65 vertices

vn 0.0000 0.0000 1.0000
vn 1.0000 0.0000 -0.0000
vn -0.0000 1.0000 0.0000
vn -1.0000 -0.0000 0.0000
vn 0.0000 -1.0000 0.0000
vn 1.0000 0.0000 0.0000
vn -0.0000 0.0000 1.0000
vn -0.0000 1.0000 -0.0000
vn 0.0000 -1.0000 -0.0000
# 9 vertex normals

vt 0.9709 0.0242 0.0000
vt 0.9105 0.1586 0.0000
vt 0.8481 0.0242 0.0000
vt 0.6715 0.3261 0.0000
vt 0.3786 0.3261 0.0000
vt 0.3786 0.0168 0.0000
vt 0.6715 0.0168 0.0000
vt 0.2412 0.9910 0.0000
vt 0.1686 0.9911 0.0000
vt 0.1686 0.6818 0.0000
vt 0.2412 0.5271 0.0000
vt 0.3875 0.5270 0.0000
vt 0.3875 0.9909 0.0000
vt 0.6709 0.6808 0.0000
vt 0.6709 0.9901 0.0000
vt 0.5360 0.9904 0.0000
vt 0.5360 0.5264 0.0000
vt 0.3895 0.9906 0.0000
vt 0.3895 0.5267 0.0000
vt 0.8481 0.1586 0.0000
vt 0.9117 0.4917 0.0000
vt 0.9740 0.4917 0.0000
vt 0.9740 0.9694 0.0000
vt 0.9117 0.9694 0.0000
vt 0.3548 0.3544 0.0000
vt 0.6680 0.3552 0.0000
vt 0.6680 0.5099 0.0000
vt 0.3548 0.5091 0.0000
vt 0.6709 0.5262 0.0000
vt 0.0248 0.6818 0.0000
vt 0.0248 0.5272 0.0000
vt 0.9640 0.0172 0.0000
vt 0.9640 0.3048 0.0000
vt 0.8322 0.0172 0.0000
vt 0.2110 0.5082 0.0000
vt 0.2110 0.3536 0.0000
vt 0.8916 0.8044 0.0000
vt 0.8916 0.9636 0.0000
vt 0.8710 0.9636 0.0000
vt 0.8710 0.8044 0.0000
vt 0.8322 0.3191 0.0000
vt 0.9640 0.3191 0.0000
vt 0.9709 0.3055 0.0000
vt 0.9105 0.3055 0.0000
vt 0.9616 0.6878 0.0000
vt 0.9616 0.9816 0.0000
vt 0.9554 0.9754 0.0000
vt 0.9554 0.6940 0.0000
vt 0.8887 0.9816 0.0000
vt 0.8950 0.9754 0.0000
vt 0.8887 0.8347 0.0000
vt 0.8950 0.8285 0.0000
vt 0.8264 0.8347 0.0000
vt 0.8326 0.8285 0.0000
vt 0.8264 0.6878 0.0000
vt 0.8326 0.6940 0.0000
vt 0.9848 0.9912 0.0000
vt 0.9848 0.7098 0.0000
vt 0.9896 0.7098 0.0000
vt 0.9896 0.9912 0.0000
vt 0.8854 0.7029 0.0000
vt 0.9459 0.7029 0.0000
vt 0.9459 0.7077 0.0000
vt 0.8854 0.7077 0.0000
vt 0.9416 0.8039 0.0000
vt 0.9416 0.9508 0.0000
vt 0.9368 0.9508 0.0000
vt 0.9368 0.8039 0.0000
vt 0.9477 0.9194 0.0000
vt 0.9477 0.8570 0.0000
vt 0.9525 0.8570 0.0000
vt 0.9525 0.9194 0.0000
vt 0.9410 0.9612 0.0000
vt 0.9410 0.8267 0.0000
vt 0.9459 0.8267 0.0000
vt 0.9459 0.9612 0.0000
vt 0.9607 0.9799 0.0000
vt 0.9607 0.8570 0.0000
vt 0.9655 0.8570 0.0000
vt 0.9655 0.9799 0.0000
vt 0.9888 0.6752 0.0000
vt 0.9876 0.9690 0.0000
vt 0.9813 0.9690 0.0000
vt 0.9825 0.6814 0.0000
vt 0.9875 0.9896 0.0000
vt 0.9813 0.9833 0.0000
vt 0.8432 0.9890 0.0000
vt 0.8495 0.9827 0.0000
vt 0.8445 0.6746 0.0000
vt 0.8508 0.6809 0.0000
vt 0.9781 0.9897 0.0000
vt 0.9781 0.7021 0.0000
vt 0.9829 0.7021 0.0000
vt 0.9829 0.9897 0.0000
vt 0.9781 0.6878 0.0000
vt 0.9829 0.6878 0.0000
vt 0.9737 0.9888 0.0000
vt 0.9737 0.8570 0.0000
vt 0.9785 0.8570 0.0000
vt 0.9785 0.9888 0.0000
vt 0.9639 0.9884 0.0000
vt 0.9639 0.6865 0.0000
vt 0.9687 0.6865 0.0000
vt 0.9687 0.9884 0.0000
vt 0.9868 0.9888 0.0000
vt 0.9868 0.8570 0.0000
vt 0.9916 0.8570 0.0000
vt 0.9916 0.9888 0.0000
vt 0.9629 0.0258 0.0000
vt 0.9025 0.1602 0.0000
vt 0.8401 0.0258 0.0000
vt 0.3280 0.3308 0.0000
vt 0.0358 0.3308 0.0000
vt 0.0358 0.0198 0.0000
vt 0.3280 0.0198 0.0000
vt 0.2094 0.5072 0.0000
vt 0.1371 0.5073 0.0000
vt 0.1371 0.3550 0.0000
vt 0.2094 0.3549 0.0000
vt 0.3550 0.3549 0.0000
vt 0.3550 0.5072 0.0000
vt 0.6654 0.3552 0.0000
vt 0.6654 0.5121 0.0000
vt 0.5116 0.5121 0.0000
vt 0.5116 0.3551 0.0000
vt 0.3445 0.5120 0.0000
vt 0.3445 0.3550 0.0000
vt 0.8401 0.1602 0.0000
vt 0.9177 0.5311 0.0000
vt 0.9748 0.5311 0.0000
vt 0.9748 0.9488 0.0000
vt 0.9177 0.9488 0.0000
vt 0.9629 0.3071 0.0000
vt 0.9025 0.3071 0.0000
vt 0.9476 0.7074 0.0000
vt 0.9476 0.9644 0.0000
vt 0.9419 0.9589 0.0000
vt 0.9419 0.7129 0.0000
vt 0.8809 0.9644 0.0000
vt 0.8866 0.9589 0.0000
vt 0.8809 0.8359 0.0000
vt 0.8866 0.8305 0.0000
vt 0.8239 0.8359 0.0000
vt 0.8296 0.8305 0.0000
vt 0.8239 0.7074 0.0000
vt 0.8296 0.7129 0.0000
vt 0.9688 0.9727 0.0000
vt 0.9688 0.7267 0.0000
vt 0.9732 0.7267 0.0000
vt 0.9732 0.9727 0.0000
vt 0.8779 0.7207 0.0000
vt 0.9332 0.7207 0.0000
vt 0.9332 0.7249 0.0000
vt 0.8779 0.7249 0.0000
vt 0.9293 0.8090 0.0000
vt 0.9293 0.9374 0.0000
vt 0.9249 0.9374 0.0000
vt 0.9249 0.8090 0.0000
vt 0.9349 0.9100 0.0000
vt 0.9349 0.8554 0.0000
vt 0.9393 0.8554 0.0000
vt 0.9393 0.9100 0.0000
vt 0.9288 0.9465 0.0000
vt 0.9288 0.8289 0.0000
vt 0.9332 0.8289 0.0000
vt 0.9332 0.9465 0.0000
vt 0.9468 0.9628 0.0000
vt 0.9468 0.8554 0.0000
vt 0.9512 0.8554 0.0000
vt 0.9512 0.9628 0.0000
# 170 texture coords

g tower15k
usemtl Material__76
s 4
f 1/1/1 2/2/1 3/3/1 
s 8
f 4/4/2 5/5/2 6/6/2 7/7/2 
s 16
f 8/8/3 4/9/3 7/10/3 9/11/3 
s 32
f 10/12/4 11/13/4 8/8/4 9/11/4 
s 64
f 6/14/5 5/15/5 12/16/5 13/17/5 
s 32
f 12/16/4 14/18/4 15/19/4 13/17/4 
s off
f 3/3/1 2/2/1 16/20/1 
f 10/21/3 15/22/3 14/23/3 11/24/3 
s 8
f 17/25/6 18/26/6 19/27/6 20/28/6 
s 64
f 13/17/5 21/29/5 6/14/5 
s off
f 9/11/3 7/10/3 19/30/3 18/31/3 
f 22/32/7 23/33/7 24/34/7 
f 25/35/5 26/36/5 17/25/5 20/28/5 
f 6/37/4 21/38/4 26/39/4 25/40/4 
f 27/41/1 24/34/1 23/33/1 28/42/1 
s 4
f 29/43/1 30/44/1 2/2/1 1/1/1 
s off
f 5/45/1 4/46/1 31/47/1 32/48/1 
f 4/46/1 8/49/1 33/50/1 31/47/1 
f 8/49/1 11/51/1 34/52/1 33/50/1 
f 11/51/1 14/53/1 35/54/1 34/52/1 
f 14/53/1 12/55/1 36/56/1 35/54/1 
f 12/55/1 5/45/1 32/48/1 36/56/1 
f 32/57/4 31/58/4 29/59/4 1/60/4 
f 31/61/5 33/62/5 30/63/5 29/64/5 
f 33/65/6 34/66/6 2/67/6 30/68/6 
f 34/69/5 35/70/5 16/71/5 2/72/5 
f 35/73/6 36/74/6 3/75/6 16/76/6 
f 36/77/3 32/78/3 1/79/3 3/80/3 
f 7/81/1 6/82/1 37/83/1 38/84/1 
f 6/82/1 25/85/1 39/86/1 37/83/1 
f 25/85/1 20/87/1 40/88/1 39/86/1 
f 20/87/7 19/89/7 41/90/7 40/88/7 
f 19/89/1 7/81/1 38/84/1 41/90/1 
f 38/91/6 37/92/6 23/93/6 22/94/6 
f 37/92/6 39/95/6 28/96/6 23/93/6 
f 39/97/3 40/98/3 27/99/3 28/100/3 
f 40/101/4 41/102/4 24/103/4 27/104/4 
f 41/105/5 38/106/5 22/107/5 24/108/5 
s 4
f 42/109/1 43/110/1 44/111/1 
s 8
f 45/112/6 46/113/6 47/114/6 48/115/6 
s 16
f 49/116/8 45/117/8 48/118/8 50/119/8 
s 32
f 51/120/4 52/121/4 49/116/4 50/119/4 
s 64
f 47/122/9 46/123/9 53/124/9 54/125/9 
s 32
f 53/124/4 55/126/4 56/127/4 54/125/4 
s off
f 44/111/1 43/110/1 57/128/1 
f 51/129/3 56/130/3 55/131/3 52/132/3 
s 4
f 58/133/1 59/134/1 43/110/1 42/109/1 
s off
f 46/135/1 45/136/1 60/137/1 61/138/1 
f 45/136/1 49/139/1 62/140/1 60/137/1 
f 49/139/1 52/141/1 63/142/1 62/140/1 
f 52/141/1 55/143/1 64/144/1 63/142/1 
f 55/143/1 53/145/1 65/146/1 64/144/1 
f 53/145/1 46/135/1 61/138/1 65/146/1 
f 61/147/4 60/148/4 58/149/4 42/150/4 
f 60/151/5 62/152/5 59/153/5 58/154/5 
f 62/155/6 63/156/6 43/157/6 59/158/6 
f 63/159/5 64/160/5 57/161/5 43/162/5 
f 64/163/6 65/164/6 44/165/6 57/166/6 
f 65/167/3 61/168/3 42/169/3 44/170/3 
# 53 polygons - 6 triangles

