# 3ds Max Wavefront OBJ Exporter v0.97b - (c)2007 guruware
# File Created: 25.11.2016 14:49:02

mtllib tower8.mtl

#
# object tower8
#

v  -11.0000 -11.0000 60.0000
v  11.0000 -11.0000 60.0000
v  11.0000 11.0000 60.0000
v  -11.0000 11.0000 60.0000
v  -11.0000 -11.0000 0.0000
v  11.0000 -11.0000 0.0000
v  11.0000 11.0000 0.0000
v  -11.0000 11.0000 0.0000
# 8 vertices

vn 0.0000 0.0000 1.0000
vn 0.0000 -1.0000 0.0000
vn 1.0000 0.0000 0.0000
vn 0.0000 1.0000 0.0000
vn -1.0000 0.0000 0.0000
# 5 vertex normals

vt 0.4929 0.7379 0.0000
vt 0.7149 0.7379 0.0000
vt 0.7149 0.9599 0.0000
vt 0.4929 0.9599 0.0000
vt 0.0205 0.0325 0.0000
vt 0.4511 0.0325 0.0000
vt 0.4511 0.9723 0.0000
vt 0.0205 0.9723 0.0000
vt 0.0208 0.0325 0.0000
vt 0.4514 0.0325 0.0000
vt 0.4514 0.9723 0.0000
vt 0.0208 0.9723 0.0000
vt 0.0212 0.0325 0.0000
vt 0.4518 0.0325 0.0000
vt 0.4518 0.9723 0.0000
vt 0.0212 0.9723 0.0000
vt 0.0213 0.0324 0.0000
vt 0.4519 0.0324 0.0000
vt 0.4519 0.9723 0.0000
vt 0.0213 0.9723 0.0000
# 20 texture coords

g tower8
usemtl Material__29
s 4
f 1/1/1 2/2/1 3/3/1 4/4/1 
s 8
f 5/5/2 6/6/2 2/7/2 1/8/2 
s 16
f 6/9/3 7/10/3 3/11/3 2/12/3 
s 32
f 7/13/4 8/14/4 4/15/4 3/16/4 
s 64
f 8/17/5 5/18/5 1/19/5 4/20/5 
# 5 polygons

