# 3ds Max Wavefront OBJ Exporter v0.97b - (c)2007 guruware
# File Created: 25.11.2016 14:53:33

mtllib tower23.mtl

#
# object tower23
#

v  5.7944 -10.5048 7.2331
v  5.7944 -8.4756 7.2331
v  -5.7944 -8.4756 7.2331
v  -5.7944 -10.5048 7.2331
v  -5.9944 -10.7048 0.0000
v  5.9944 -10.7048 0.0000
v  5.9944 -10.7048 7.2331
v  -5.9944 -10.7048 7.2331
v  5.9944 -8.6136 0.0000
v  5.9944 -8.6136 7.2331
v  5.9944 10.7048 0.0000
v  -5.9944 10.7048 0.0000
v  -5.9944 10.7048 7.2331
v  5.9944 10.7048 7.2331
v  -5.9944 -4.0678 0.0000
v  -5.9944 -4.0678 7.2331
v  -5.9944 -10.7048 13.7677
v  5.9944 -10.7048 13.7677
v  5.7944 -10.5048 13.7677
v  -5.7944 -10.5048 13.7677
v  5.9944 -8.4714 12.5873
v  5.7944 -8.3289 12.5958
v  5.9944 10.7048 11.0505
v  -5.9944 10.7048 11.0505
v  -5.7944 10.5048 11.0505
v  5.7944 10.5048 11.0505
v  -5.9944 -4.0678 11.0505
v  -5.7944 -3.9918 11.0505
v  -5.7944 -8.3289 12.5958
v  -5.7944 10.5048 7.2331
v  5.7944 10.5048 7.2331
v  5.7944 -3.9918 7.2331
v  5.7944 -3.9918 11.0505
v  -5.7944 -3.9918 7.2331
v  5.9944 -4.0678 7.2331
v  5.9944 -4.0678 0.0000
v  -5.9944 -6.1589 0.0000
v  -5.9944 -6.1589 7.2331
v  5.9944 -4.0678 11.0505
v  -5.9944 -6.2076 11.6716
v  -5.7944 -6.0713 11.6656
v  5.7944 -6.0209 7.2331
v  5.7944 -6.0713 11.6656
v  -5.7944 -6.0209 7.2331
v  5.9944 -6.1589 7.2331
v  5.9944 -6.1589 0.0000
v  5.9944 -6.2076 11.6716
v  -5.9944 -8.6136 7.2331
v  -5.9944 -8.6136 0.0000
v  -5.9944 -8.4714 12.5873
v  -5.7944 -7.2483 7.2331
v  5.7944 -7.2483 7.2331
v  5.9944 -7.3863 7.2331
v  5.9944 -7.3863 0.0000
v  5.7944 -7.2242 12.0723
v  5.9944 -7.3629 12.0716
v  -5.7944 -7.2242 12.0723
v  -5.9944 -7.3863 7.2331
v  -5.9944 -7.3863 0.0000
v  -5.9944 -7.3629 12.0716
v  6.0623 -10.7675 7.2712
v  -6.0623 -10.7675 7.2712
v  -6.4660 -11.3469 5.5971
v  6.4660 -11.3469 5.5971
v  6.4660 11.3469 5.5971
v  6.0623 10.7675 7.2712
v  -6.0623 10.7675 7.2712
v  -6.4660 11.3469 5.5971
v  -6.4022 -11.2801 5.5586
v  6.4022 -11.2801 5.5586
v  6.4022 11.2801 5.5586
v  -6.4022 11.2801 5.5586
v  -6.0343 -1.8331 7.7919
v  -6.0343 -10.0311 7.7919
v  -6.0343 -10.0311 9.4639
v  -6.0343 -1.8331 9.4639
v  -5.9443 -1.8331 9.4639
v  -5.9443 -1.8331 7.7919
v  -5.9443 -10.0311 7.7919
v  -5.9443 -10.0311 9.4639
# 80 vertices

vn -0.0000 -0.0000 1.0000
vn 0.0000 0.0000 1.0000
vn 0.0000 -1.0000 0.0000
vn 1.0000 0.0000 -0.0000
vn -0.0000 1.0000 -0.0000
vn 0.0000 1.0000 0.0000
vn -0.0000 1.0000 0.0000
vn -1.0000 0.0000 0.0000
vn 0.3886 0.4337 0.8129
vn 1.0000 0.0000 0.0000
vn 0.0000 1.0000 -0.0000
vn -0.0000 0.0000 1.0000
vn -0.1336 0.2787 0.9510
vn 0.1336 0.2787 0.9510
vn -0.3886 0.4337 0.8129
vn 0.3043 0.4049 0.8623
vn -0.2093 0.3226 0.9231
vn 0.2093 0.3226 0.9231
vn -0.3043 0.4049 0.8623
vn 0.0000 -0.9450 0.3271
vn 0.9721 -0.0000 0.2344
vn 0.9721 0.0000 0.2344
vn -0.0000 0.9450 0.3271
vn 0.0000 0.9450 0.3271
vn -0.9721 0.0000 0.2344
vn 0.0000 0.9457 -0.3250
vn -0.9716 0.0000 -0.2366
vn 0.0000 -0.9457 -0.3250
vn 0.9716 0.0000 -0.2366
vn -0.2794 -0.2650 -0.9229
vn 0.2794 -0.2650 -0.9229
vn 0.2704 -0.2737 -0.9230
vn -0.2704 -0.2737 -0.9230
vn -0.2580 0.2819 0.9241
vn 0.2580 0.2819 0.9241
vn 0.2723 0.2667 0.9245
vn -0.2723 0.2667 0.9245
vn -0.2580 -0.2819 0.9241
vn -0.2723 -0.2667 0.9245
vn 0.2794 0.2650 -0.9229
vn 0.2704 0.2737 -0.9230
vn -0.2794 0.2650 -0.9229
vn -0.2704 0.2737 -0.9230
vn 0.2580 -0.2819 0.9241
vn 0.2723 -0.2667 0.9245
vn -1.0000 0.0000 -0.0000
vn 0.0000 0.0000 -1.0000
# 47 vertex normals

vt 0.7849 0.6246 0.0000
vt 0.7849 0.5922 0.0000
vt 0.9698 0.5922 0.0000
vt 0.9698 0.6246 0.0000
vt 0.4951 0.4143 0.0000
vt 0.7387 0.4143 0.0000
vt 0.7387 0.5591 0.0000
vt 0.4951 0.5591 0.0000
vt 0.0671 0.4087 0.0000
vt 0.0671 0.5535 0.0000
vt 0.0246 0.5535 0.0000
vt 0.0246 0.4087 0.0000
vt 0.5111 0.7319 0.0000
vt 0.7547 0.7319 0.0000
vt 0.7547 0.8738 0.0000
vt 0.5111 0.8738 0.0000
vt 0.3296 0.7128 0.0000
vt 0.3296 0.8576 0.0000
vt 0.0294 0.8576 0.0000
vt 0.0294 0.7128 0.0000
vt 0.9791 0.9835 0.0000
vt 0.7878 0.9835 0.0000
vt 0.7910 0.9803 0.0000
vt 0.9759 0.9803 0.0000
vt 0.7878 0.9479 0.0000
vt 0.7910 0.9456 0.0000
vt 0.7878 0.6419 0.0000
vt 0.9791 0.6419 0.0000
vt 0.9759 0.6451 0.0000
vt 0.7910 0.6451 0.0000
vt 0.9791 0.8776 0.0000
vt 0.9759 0.8764 0.0000
vt 0.7387 0.6899 0.0000
vt 0.4951 0.6899 0.0000
vt 0.0700 0.6607 0.0000
vt 0.0246 0.6843 0.0000
vt 0.7547 0.9553 0.0000
vt 0.5111 0.9553 0.0000
vt 0.3296 0.9340 0.0000
vt 0.0294 0.9340 0.0000
vt 0.4952 0.5597 0.0000
vt 0.7384 0.5597 0.0000
vt 0.7384 0.6905 0.0000
vt 0.4952 0.6905 0.0000
vt 0.4645 0.8576 0.0000
vt 0.4224 0.8576 0.0000
vt 0.4194 0.9650 0.0000
vt 0.4645 0.9884 0.0000
vt 0.5112 0.8738 0.0000
vt 0.5112 0.9553 0.0000
vt 0.1594 0.5537 0.0000
vt 0.1594 0.6301 0.0000
vt 0.4596 0.6301 0.0000
vt 0.4596 0.5537 0.0000
vt 0.7849 0.2894 0.0000
vt 0.9698 0.2894 0.0000
vt 0.9698 0.5207 0.0000
vt 0.7849 0.5207 0.0000
vt 0.4596 0.4087 0.0000
vt 0.4596 0.5535 0.0000
vt 0.1595 0.5535 0.0000
vt 0.1595 0.4087 0.0000
vt 0.3721 0.7128 0.0000
vt 0.3721 0.8576 0.0000
vt 0.7878 0.8776 0.0000
vt 0.7910 0.8764 0.0000
vt 0.9791 0.9118 0.0000
vt 0.9759 0.9096 0.0000
vt 0.4596 0.6299 0.0000
vt 0.1595 0.6299 0.0000
vt 0.3731 0.9464 0.0000
vt 0.1174 0.5537 0.0000
vt 0.1163 0.6424 0.0000
vt 0.9698 0.5531 0.0000
vt 0.7849 0.5531 0.0000
vt 0.1170 0.5535 0.0000
vt 0.1170 0.4087 0.0000
vt 0.7910 0.9096 0.0000
vt 0.7878 0.9118 0.0000
vt 0.1160 0.6424 0.0000
vt 0.3716 0.8576 0.0000
vt 0.3727 0.9463 0.0000
vt 0.4644 0.7128 0.0000
vt 0.4644 0.8576 0.0000
vt 0.4220 0.8576 0.0000
vt 0.4220 0.7128 0.0000
vt 0.9791 0.9479 0.0000
vt 0.9759 0.9456 0.0000
vt 0.4644 0.9884 0.0000
vt 0.4191 0.9648 0.0000
vt 0.0245 0.5537 0.0000
vt 0.0245 0.6845 0.0000
vt 0.0696 0.6610 0.0000
vt 0.0666 0.5537 0.0000
vt 0.9698 0.5727 0.0000
vt 0.7849 0.5727 0.0000
vt 0.0920 0.5535 0.0000
vt 0.0920 0.4087 0.0000
vt 0.7910 0.9280 0.0000
vt 0.7878 0.9302 0.0000
vt 0.0925 0.6504 0.0000
vt 0.3965 0.9545 0.0000
vt 0.3970 0.8576 0.0000
vt 0.3970 0.7128 0.0000
vt 0.9759 0.9280 0.0000
vt 0.9791 0.9302 0.0000
vt 0.3965 0.9544 0.0000
vt 0.0925 0.6505 0.0000
vt 0.0920 0.5537 0.0000
vt 0.6357 0.1073 0.0000
vt 0.8292 0.1073 0.0000
vt 0.8357 0.1356 0.0000
vt 0.6293 0.1356 0.0000
vt 0.9801 0.1077 0.0000
vt 0.9893 0.1344 0.0000
vt 0.6272 0.1344 0.0000
vt 0.6364 0.1077 0.0000
vt 0.6341 0.1073 0.0000
vt 0.8275 0.1073 0.0000
vt 0.8340 0.1356 0.0000
vt 0.6276 0.1356 0.0000
vt 0.9799 0.1084 0.0000
vt 0.9892 0.1359 0.0000
vt 0.6270 0.1359 0.0000
vt 0.6363 0.1084 0.0000
vt 0.6279 0.1329 0.0000
vt 0.6344 0.1047 0.0000
vt 0.8257 0.1047 0.0000
vt 0.8322 0.1329 0.0000
vt 0.9878 0.1350 0.0000
vt 0.6278 0.1350 0.0000
vt 0.6369 0.1075 0.0000
vt 0.9786 0.1075 0.0000
vt 0.6277 0.1347 0.0000
vt 0.6342 0.1065 0.0000
vt 0.8255 0.1065 0.0000
vt 0.8320 0.1347 0.0000
vt 0.9872 0.1351 0.0000
vt 0.6272 0.1351 0.0000
vt 0.6364 0.1076 0.0000
vt 0.9780 0.1076 0.0000
vt 0.9842 0.2223 0.0000
vt 0.9842 0.0180 0.0000
vt 0.9853 0.0170 0.0000
vt 0.9853 0.2233 0.0000
vt 0.9817 0.2034 0.0000
vt 0.9817 0.0121 0.0000
vt 0.9829 0.0110 0.0000
vt 0.9829 0.2045 0.0000
vt 0.6897 0.2034 0.0000
vt 0.6891 0.2045 0.0000
vt 0.6242 0.0180 0.0000
vt 0.6231 0.0170 0.0000
vt 0.6242 0.2223 0.0000
vt 0.6231 0.2233 0.0000
vt 0.7083 0.0425 0.0000
vt 0.8996 0.0425 0.0000
vt 0.9007 0.0437 0.0000
vt 0.7072 0.0437 0.0000
vt 0.6897 0.0121 0.0000
vt 0.6891 0.0110 0.0000
vt 0.0266 0.0314 0.0000
vt 0.5977 0.0313 0.0000
vt 0.5977 0.1470 0.0000
vt 0.0267 0.1471 0.0000
vt 0.0235 0.1502 0.0000
vt 0.0234 0.0283 0.0000
vt 0.6008 0.0282 0.0000
vt 0.6008 0.1502 0.0000
# 169 texture coords

g tower23
usemtl Material__34
s 4
f 1/1/1 2/2/1 3/3/1 4/4/2 
s 8
f 5/5/3 6/6/3 7/7/3 8/8/3 
s 16
f 9/9/4 10/10/4 7/11/4 6/12/4 
s 32
f 11/13/5 12/14/6 13/15/7 14/16/5 
s 64
f 15/17/8 16/18/8 13/19/8 12/20/8 
s off
f 17/21/2 18/22/2 19/23/2 20/24/2 
f 21/25/9 22/26/9 19/23/9 18/22/9 
f 23/27/1 24/28/1 25/29/1 26/30/1 
f 27/31/2 28/32/2 25/29/2 24/28/2 
f 8/8/3 7/7/3 18/33/3 17/34/3 
f 7/11/10 10/10/10 21/35/10 18/36/10 
f 14/16/7 13/15/7 24/37/7 23/38/7 
f 16/18/8 27/39/8 24/40/8 13/19/8 
f 1/41/11 4/42/11 20/43/11 19/44/11 
f 4/45/10 3/46/10 29/47/10 20/48/10 
f 30/49/3 31/15/3 26/37/3 25/50/3 
f 32/51/8 33/52/8 26/53/8 31/54/8 
s 4
f 31/55/1 30/56/12 34/57/1 32/58/1 
s 16
f 11/59/4 14/60/4 35/61/4 36/62/4 
s 64
f 37/63/8 38/64/8 16/18/8 15/17/8 
s off
f 39/65/1 23/27/1 26/30/1 33/66/1 
f 27/31/13 40/67/13 41/68/13 28/32/13 
f 14/60/10 23/69/10 39/70/10 35/61/10 
f 38/64/8 40/71/8 27/39/8 16/18/8 
f 30/19/10 25/40/10 28/39/10 34/18/10 
f 42/72/8 43/73/8 33/52/8 32/51/8 
s 4
f 32/58/1 34/57/1 44/74/12 42/75/12 
s 16
f 36/62/4 35/61/4 45/76/4 46/77/4 
s off
f 39/65/14 33/66/14 43/78/14 47/79/14 
f 45/76/10 35/61/10 39/70/10 47/80/10 
f 44/81/10 34/18/10 28/39/10 41/82/10 
s 64
f 5/83/8 8/84/8 48/85/8 49/86/8 
s off
f 50/87/15 17/21/15 20/24/15 29/88/15 
f 8/84/8 17/89/8 50/90/8 48/85/8 
f 1/91/8 19/92/8 22/93/8 2/94/8 
s 4
f 51/95/12 3/3/1 2/2/1 52/96/12 
s 16
f 53/97/4 10/10/4 9/9/4 54/98/4 
s off
f 55/99/16 22/26/16 21/25/16 56/100/16 
f 56/101/10 21/35/10 10/10/10 53/97/10 
f 57/102/10 29/47/10 3/46/10 51/103/10 
s 64
f 58/103/8 38/64/8 37/63/8 59/104/8 
s off
f 57/105/17 41/68/17 40/67/17 60/106/17 
f 60/107/8 40/71/8 38/64/8 58/103/8 
f 55/108/8 43/73/8 42/72/8 52/109/8 
s 4
f 44/74/12 51/95/12 52/96/12 42/75/12 
s 16
f 45/76/4 53/97/4 54/98/4 46/77/4 
s off
f 43/78/18 55/99/18 56/100/18 47/79/18 
f 47/80/10 56/101/10 53/97/10 45/76/10 
f 41/82/10 57/102/10 51/103/10 44/81/10 
s 64
f 48/85/8 58/103/8 59/104/8 49/86/8 
s off
f 29/88/19 57/105/19 60/106/19 50/87/19 
f 50/90/8 60/107/8 58/103/8 48/85/8 
f 22/93/8 55/108/8 52/109/8 2/94/8 
s 8
f 61/110/20 62/111/20 63/112/20 64/113/20 
s 16
f 61/114/21 64/115/22 65/116/21 66/117/21 
s 32
f 67/118/23 66/119/23 65/120/23 68/121/24 
s 64
f 67/122/25 68/123/25 63/124/25 62/125/25 
s 8
f 69/126/26 8/127/26 7/128/26 70/129/26 
s 16
f 71/130/27 70/131/27 7/132/27 14/133/27 
s 32
f 71/134/28 14/135/28 13/136/28 72/137/28 
s 64
f 69/138/29 72/139/29 13/140/29 8/141/29 
s 1
f 69/142/30 70/143/31 64/144/32 63/145/33 
f 7/146/34 8/147/35 62/148/36 61/149/37 
f 14/150/38 7/146/34 61/149/37 66/151/39 
f 70/143/31 71/152/40 65/153/41 64/144/32 
f 71/152/40 72/154/42 68/155/43 65/153/41 
f 13/156/44 14/157/38 66/158/39 67/159/45 
f 8/147/35 13/160/44 67/161/45 62/148/36 
f 72/154/42 69/142/30 63/145/33 68/155/43 
f 73/162/46 74/163/46 75/164/46 76/165/8 
s off
f 77/166/6 78/167/6 73/162/6 76/165/6 
f 78/167/47 79/168/47 74/163/47 73/162/47 
f 79/168/3 80/169/3 75/164/3 74/163/3 
f 80/169/2 77/166/2 76/165/2 75/164/2 
# 74 polygons

