# 3ds Max Wavefront OBJ Exporter v0.97b - (c)2007 guruware
# File Created: 25.11.2016 14:50:57

mtllib tower13.mtl

#
# object tower13
#

v  -11.0000 -11.0000 0.0000
v  11.0000 -11.0000 0.0000
v  11.0000 -11.0000 51.6146
v  -11.0000 -11.0000 51.6146
v  11.0000 11.0000 0.0000
v  11.0000 11.0000 51.6146
v  -11.0000 11.0000 0.0000
v  -11.0000 11.0000 51.6146
v  8.7090 -8.7090 51.6146
v  -8.7090 -8.7090 51.6146
v  8.7090 8.7090 51.6146
v  -8.7090 8.7090 51.6146
v  8.7090 -8.7090 69.7557
v  -8.7090 -8.7090 69.7557
v  8.7090 8.7090 69.7557
v  -8.7090 8.7090 69.7557
v  4.4814 -4.4814 69.7557
v  -4.4814 -4.4814 69.7557
v  4.4814 4.4814 69.7557
v  -4.4814 4.4814 69.7557
v  4.4814 -4.4814 71.0995
v  -4.4814 -4.4814 71.0995
v  4.4814 4.4814 71.0995
v  -4.4814 4.4814 71.0995
v  0.0000 0.0000 74.0472
# 25 vertices

vn 0.0000 -1.0000 0.0000
vn 1.0000 0.0000 0.0000
vn 0.0000 1.0000 0.0000
vn -1.0000 0.0000 0.0000
vn 0.0000 0.0000 1.0000
vn 0.0000 -0.5495 0.8355
vn 0.5495 0.0000 0.8355
vn 0.0000 0.5495 0.8355
vn -0.5495 0.0000 0.8355
# 9 vertex normals

vt 0.3008 0.2523 0.0000
vt 0.5887 0.2523 0.0000
vt 0.5887 0.9906 0.0000
vt 0.3008 0.9906 0.0000
vt 0.0115 0.2524 0.0000
vt 0.2995 0.2519 0.0000
vt 0.2995 0.9903 0.0000
vt 0.0115 0.9907 0.0000
vt 0.5874 0.2515 0.0000
vt 0.5874 0.9899 0.0000
vt 0.0129 0.2522 0.0000
vt 0.0129 0.9906 0.0000
vt 0.7687 0.0100 0.0000
vt 0.9888 0.0100 0.0000
vt 0.9659 0.0329 0.0000
vt 0.7917 0.0329 0.0000
vt 0.9888 0.2300 0.0000
vt 0.9659 0.2071 0.0000
vt 0.7687 0.2300 0.0000
vt 0.7917 0.2071 0.0000
vt 0.6068 0.7307 0.0000
vt 0.8347 0.7307 0.0000
vt 0.8347 0.9902 0.0000
vt 0.6068 0.9902 0.0000
vt 0.6072 0.7307 0.0000
vt 0.8351 0.7307 0.0000
vt 0.8351 0.9902 0.0000
vt 0.6072 0.9902 0.0000
vt 0.6071 0.7304 0.0000
vt 0.8351 0.7304 0.0000
vt 0.8351 0.9899 0.0000
vt 0.6071 0.9899 0.0000
vt 0.7912 0.0327 0.0000
vt 0.9654 0.0327 0.0000
vt 0.9232 0.0750 0.0000
vt 0.8335 0.0750 0.0000
vt 0.9654 0.2069 0.0000
vt 0.9232 0.1646 0.0000
vt 0.7912 0.2069 0.0000
vt 0.8335 0.1646 0.0000
vt 0.9223 0.1564 0.0000
vt 0.8326 0.1564 0.0000
vt 0.8326 0.1429 0.0000
vt 0.9223 0.1429 0.0000
vt 0.9227 0.1559 0.0000
vt 0.8330 0.1559 0.0000
vt 0.8330 0.1425 0.0000
vt 0.9227 0.1425 0.0000
vt 0.9225 0.1561 0.0000
vt 0.8328 0.1561 0.0000
vt 0.8328 0.1427 0.0000
vt 0.9225 0.1427 0.0000
vt 0.9223 0.1562 0.0000
vt 0.8327 0.1562 0.0000
vt 0.8327 0.1427 0.0000
vt 0.9223 0.1427 0.0000
vt 0.9889 0.8478 0.0000
vt 0.9889 0.9886 0.0000
vt 0.9245 0.9182 0.0000
vt 0.8601 0.9886 0.0000
vt 0.8600 0.8478 0.0000
# 61 texture coords

g tower13
usemtl Material__30
s 8
f 1/1/1 2/2/1 3/3/1 4/4/1 
s 16
f 2/5/2 5/6/2 6/7/2 3/8/2 
s 32
f 5/6/3 7/9/3 8/10/3 6/7/3 
s 64
f 7/11/4 1/1/4 4/4/4 8/12/4 
s off
f 4/13/5 3/14/5 9/15/5 10/16/5 
f 3/14/5 6/17/5 11/18/5 9/15/5 
f 6/17/5 8/19/5 12/20/5 11/18/5 
f 8/19/5 4/13/5 10/16/5 12/20/5 
f 10/21/1 9/22/1 13/23/1 14/24/1 
f 9/25/2 11/26/2 15/27/2 13/28/2 
f 11/29/3 12/30/3 16/31/3 15/32/3 
f 12/25/4 10/26/4 14/27/4 16/28/4 
s 1
f 14/33/5 13/34/5 17/35/5 18/36/5 
f 13/34/5 15/37/5 19/38/5 17/35/5 
f 15/37/5 16/39/5 20/40/5 19/38/5 
f 16/39/5 14/33/5 18/36/5 20/40/5 
s off
f 18/41/1 17/42/1 21/43/1 22/44/1 
f 17/45/2 19/46/2 23/47/2 21/48/2 
f 19/49/3 20/50/3 24/51/3 23/52/3 
f 20/53/4 18/54/4 22/55/4 24/56/4 
f 22/57/6 21/58/6 25/59/6 
f 21/58/7 23/60/7 25/59/7 
f 23/60/8 24/61/8 25/59/8 
f 24/61/9 22/57/9 25/59/9 
# 20 polygons - 4 triangles

