# 3ds Max Wavefront OBJ Exporter v0.97b - (c)2007 guruware
# File Created: 25.11.2016 14:51:17

mtllib tower14.mtl

#
# object tower14
#

v  17.7044 1.0227 0.0000
v  17.7044 1.0227 24.7264
v  5.8479 1.0227 24.7264
v  5.8479 1.0227 0.0000
v  17.7044 12.8792 0.0000
v  17.7044 12.8792 24.7264
v  5.8479 12.8792 0.0000
v  5.8479 12.8792 24.7264
v  -0.5851 1.0227 0.0000
v  -0.5851 1.0227 24.7264
v  -0.5851 12.8792 24.7264
v  -0.5851 12.8792 0.0000
v  5.8479 1.0227 52.6094
v  17.7044 1.0227 52.6094
v  14.3977 4.3294 52.6094
v  9.1546 4.3294 52.6094
v  17.7044 12.8792 52.6094
v  14.3977 9.5725 52.6094
v  5.8479 12.8792 52.6094
v  9.1546 9.5725 52.6094
v  14.3977 4.3294 53.0547
v  9.1546 4.3294 53.0547
v  14.3977 9.5725 53.0547
v  9.1546 9.5725 53.0547
v  13.4768 5.2504 53.0547
v  10.0756 5.2504 53.0547
v  13.4768 8.6515 53.0547
v  10.0756 8.6515 53.0547
v  13.4768 5.2504 53.4924
v  10.0756 5.2504 53.4924
v  13.4768 8.6515 53.4924
v  10.0756 8.6515 53.4924
v  12.8155 5.9116 53.4924
v  10.7369 5.9116 53.4924
v  12.8155 7.9903 53.4924
v  10.7369 7.9903 53.4924
v  12.8155 5.9116 53.8561
v  10.7369 5.9116 53.8561
v  12.8155 7.9903 53.8561
v  10.7369 7.9903 53.8561
v  12.2209 6.5062 53.8561
v  11.3314 6.5062 53.8561
v  12.2209 7.3957 53.8561
v  11.3314 7.3957 53.8561
v  12.2209 6.5062 54.0108
v  11.3314 6.5062 54.0108
v  12.2209 7.3957 54.0108
v  11.3314 7.3957 54.0108
v  5.0693 1.8013 24.1635
v  5.0693 12.1006 24.1635
v  0.1935 12.1006 24.1635
v  0.1935 1.8013 24.1635
v  5.0693 12.1006 24.7264
v  5.0693 1.8013 24.7264
v  0.1935 12.1006 24.7264
v  0.1935 1.8013 24.7264
v  -1.6816 -12.7334 0.0000
v  9.9062 -12.7334 0.0000
v  9.9062 -12.7334 14.0634
v  -1.6816 -12.7334 14.0634
v  9.9062 1.0067 0.0000
v  9.9062 1.0067 14.0634
v  -3.8339 1.0067 0.0000
v  -3.8339 1.0067 14.0634
v  -3.8339 -10.5812 0.0000
v  -3.8339 -10.5812 14.0634
v  8.7603 -11.8643 14.0634
v  -1.1281 -11.8643 14.0634
v  8.7603 -0.1392 14.0634
v  -2.9647 -0.1392 14.0634
v  -2.9647 -10.0277 14.0634
v  8.7603 -11.8643 13.5008
v  -1.1281 -11.8643 13.5008
v  8.7603 -0.1392 13.5008
v  -2.9647 -0.1392 13.5008
v  -2.9647 -10.0277 13.5008
v  -15.4064 -12.7334 0.0000
v  -3.8186 -12.7334 0.0000
v  -3.8186 -12.7334 9.4426
v  -15.4064 -12.7334 9.4426
v  -3.8186 1.0067 0.0000
v  -3.8186 1.0067 9.4426
v  -17.5587 1.0067 0.0000
v  -17.5587 1.0067 9.4426
v  -17.5587 -10.5812 0.0000
v  -17.5587 -10.5812 9.4426
v  -4.9645 -11.8643 9.4426
v  -14.8529 -11.8643 9.4426
v  -4.9645 -0.1392 9.4426
v  -16.6895 -0.1392 9.4426
v  -16.6895 -10.0277 9.4426
v  -4.9645 -11.8643 8.8800
v  -14.8529 -11.8643 8.8800
v  -4.9645 -0.1392 8.8800
v  -16.6895 -0.1392 8.8800
v  -16.6895 -10.0277 8.8800
v  -8.7470 -10.9129 9.2656
v  -6.1707 -10.9129 9.2656
v  -6.1707 -8.3366 9.2656
v  -8.7470 -8.3366 9.2656
v  -8.7470 -8.3366 8.8086
v  -8.7470 -10.9129 8.8086
v  -6.1707 -10.9129 8.8086
v  -6.1707 -8.3366 8.8086
v  -8.7470 -3.8035 9.2656
v  -6.1707 -3.8035 9.2656
v  -6.1707 -1.2272 9.2656
v  -8.7470 -1.2272 9.2656
v  -8.7470 -1.2272 8.8086
v  -8.7470 -3.8035 8.8086
v  -6.1707 -3.8035 8.8086
v  -6.1707 -1.2272 8.8086
v  -0.3807 -2.1583 13.3370
v  -0.3807 -4.7346 13.3370
v  -0.3807 -4.7346 13.7941
v  -0.3807 -2.1583 13.7941
v  2.1956 -4.7346 13.3370
v  2.1956 -4.7346 13.7941
v  2.1956 -2.1583 13.3370
v  2.1956 -2.1583 13.7941
v  0.9074 -3.4465 14.4661
v  3.6906 -6.6240 13.3370
v  3.6906 -9.2003 13.3370
v  3.6906 -9.2003 13.7941
v  3.6906 -6.6240 13.7941
v  6.2668 -9.2003 13.3370
v  6.2668 -9.2003 13.7941
v  6.2668 -6.6240 13.3370
v  6.2668 -6.6240 13.7941
v  4.9787 -7.9122 14.4661
v  -17.7044 -10.7269 9.4468
v  -15.5522 -12.8792 9.4468
v  -15.5522 -12.8792 11.2351
v  -17.7044 -10.7269 11.2351
v  -15.4064 -12.7334 11.2351
v  -15.4064 -12.7334 9.4468
v  -17.5587 -10.5812 9.4468
v  -17.5587 -10.5812 11.2351
# 138 vertices

vn 0.0000 -1.0000 0.0000
vn 1.0000 0.0000 0.0000
vn 0.0000 1.0000 0.0000
vn -1.0000 0.0000 0.0000
vn 0.0000 0.0000 1.0000
vn -0.7071 -0.7071 0.0000
vn 0.7071 0.7071 0.0000
vn -0.3111 0.0000 0.9504
vn 0.0000 -0.3111 0.9504
vn 0.3111 0.0000 0.9504
vn 0.0000 0.3111 0.9504
vn -0.7071 0.7071 0.0000
vn 0.0000 0.0000 -1.0000
vn 0.7071 -0.7071 0.0000
# 14 vertex normals

vt 0.6636 0.3656 0.0000
vt 0.6636 0.6602 0.0000
vt 0.5019 0.6602 0.0000
vt 0.5019 0.3656 0.0000
vt 0.1783 0.3657 0.0000
vt 0.1783 0.6603 0.0000
vt 0.0164 0.6603 0.0000
vt 0.0164 0.3658 0.0000
vt 0.3402 0.3657 0.0000
vt 0.3402 0.6603 0.0000
vt 0.2623 0.0446 0.0000
vt 0.2623 0.3392 0.0000
vt 0.1006 0.3392 0.0000
vt 0.1006 0.0447 0.0000
vt 0.3400 0.4881 0.0000
vt 0.5017 0.4881 0.0000
vt 0.4566 0.5332 0.0000
vt 0.3851 0.5332 0.0000
vt 0.5017 0.6498 0.0000
vt 0.4566 0.6047 0.0000
vt 0.3400 0.6498 0.0000
vt 0.3851 0.6047 0.0000
vt 0.6997 0.7171 0.0000
vt 0.7712 0.7171 0.0000
vt 0.7712 0.7209 0.0000
vt 0.6997 0.7209 0.0000
vt 0.7707 0.6388 0.0000
vt 0.6993 0.6388 0.0000
vt 0.6993 0.6350 0.0000
vt 0.7707 0.6350 0.0000
vt 0.6874 0.6450 0.0000
vt 0.6874 0.7164 0.0000
vt 0.6836 0.7164 0.0000
vt 0.6836 0.6450 0.0000
vt 0.6920 0.7137 0.0000
vt 0.6920 0.6422 0.0000
vt 0.6958 0.6422 0.0000
vt 0.6958 0.7137 0.0000
vt 0.7000 0.7137 0.0000
vt 0.7000 0.6422 0.0000
vt 0.7125 0.6548 0.0000
vt 0.7125 0.7011 0.0000
vt 0.7715 0.6422 0.0000
vt 0.7589 0.6548 0.0000
vt 0.7715 0.7137 0.0000
vt 0.7589 0.7011 0.0000
vt 0.7998 0.6624 0.0000
vt 0.8462 0.6624 0.0000
vt 0.8462 0.6661 0.0000
vt 0.7998 0.6661 0.0000
vt 0.8427 0.6857 0.0000
vt 0.7963 0.6857 0.0000
vt 0.7963 0.6820 0.0000
vt 0.8427 0.6820 0.0000
vt 0.7972 0.6685 0.0000
vt 0.8436 0.6685 0.0000
vt 0.8436 0.6722 0.0000
vt 0.7972 0.6722 0.0000
vt 0.7960 0.6752 0.0000
vt 0.8424 0.6752 0.0000
vt 0.8424 0.6790 0.0000
vt 0.7960 0.6790 0.0000
vt 0.7731 0.3598 0.0000
vt 0.7731 0.3920 0.0000
vt 0.7654 0.3858 0.0000
vt 0.7654 0.3660 0.0000
vt 0.7335 0.3920 0.0000
vt 0.7412 0.3858 0.0000
vt 0.7335 0.3598 0.0000
vt 0.7412 0.3660 0.0000
vt 0.8807 0.6542 0.0000
vt 0.8523 0.6542 0.0000
vt 0.8523 0.6511 0.0000
vt 0.8807 0.6511 0.0000
vt 0.8482 0.6834 0.0000
vt 0.8482 0.6551 0.0000
vt 0.8514 0.6551 0.0000
vt 0.8514 0.6834 0.0000
vt 0.8530 0.6459 0.0000
vt 0.8813 0.6459 0.0000
vt 0.8813 0.6490 0.0000
vt 0.8530 0.6490 0.0000
vt 0.8811 0.6887 0.0000
vt 0.8527 0.6887 0.0000
vt 0.8527 0.6856 0.0000
vt 0.8811 0.6856 0.0000
vt 0.8526 0.6840 0.0000
vt 0.8526 0.6556 0.0000
vt 0.8607 0.6638 0.0000
vt 0.8607 0.6759 0.0000
vt 0.8810 0.6556 0.0000
vt 0.8729 0.6638 0.0000
vt 0.8810 0.6840 0.0000
vt 0.8729 0.6759 0.0000
vt 0.8333 0.6539 0.0000
vt 0.8212 0.6539 0.0000
vt 0.8212 0.6526 0.0000
vt 0.8333 0.6526 0.0000
vt 0.8124 0.6536 0.0000
vt 0.8003 0.6536 0.0000
vt 0.8003 0.6523 0.0000
vt 0.8124 0.6523 0.0000
vt 0.8130 0.6570 0.0000
vt 0.8009 0.6570 0.0000
vt 0.8009 0.6556 0.0000
vt 0.8130 0.6556 0.0000
vt 0.8336 0.6570 0.0000
vt 0.8215 0.6570 0.0000
vt 0.8215 0.6556 0.0000
vt 0.8336 0.6556 0.0000
vt 0.7446 0.3480 0.0000
vt 0.7342 0.3480 0.0000
vt 0.7342 0.3395 0.0000
vt 0.7446 0.3395 0.0000
vt 0.6636 0.9923 0.0000
vt 0.5019 0.9924 0.0000
vt 0.1783 0.9925 0.0000
vt 0.0164 0.9925 0.0000
vt 0.3402 0.9924 0.0000
vt 0.3500 0.0446 0.0000
vt 0.3500 0.3392 0.0000
vt 0.8557 0.4490 0.0000
vt 0.7356 0.4490 0.0000
vt 0.7356 0.4027 0.0000
vt 0.8557 0.4027 0.0000
vt 0.0129 0.3392 0.0000
vt 0.0129 0.0447 0.0000
vt 0.9408 0.7022 0.0000
vt 0.7792 0.7022 0.0000
vt 0.7898 0.6915 0.0000
vt 0.9302 0.6915 0.0000
vt 0.7792 0.6144 0.0000
vt 0.7898 0.6251 0.0000
vt 0.9408 0.6144 0.0000
vt 0.9302 0.6251 0.0000
vt 0.9505 0.7360 0.0000
vt 0.9505 0.5956 0.0000
vt 0.9553 0.5956 0.0000
vt 0.9553 0.7360 0.0000
vt 0.9801 0.6685 0.0000
vt 0.9801 0.7350 0.0000
vt 0.9753 0.7350 0.0000
vt 0.9753 0.6685 0.0000
vt 0.9652 0.7354 0.0000
vt 0.9652 0.5950 0.0000
vt 0.9700 0.5950 0.0000
vt 0.9700 0.7354 0.0000
vt 0.9866 0.7359 0.0000
vt 0.9866 0.6694 0.0000
vt 0.9914 0.6694 0.0000
vt 0.9914 0.7359 0.0000
vt 0.8453 0.1403 0.0000
vt 0.9823 0.1403 0.0000
vt 0.9823 0.3017 0.0000
vt 0.8453 0.3017 0.0000
vt 0.3573 0.1403 0.0000
vt 0.5198 0.1403 0.0000
vt 0.5198 0.3016 0.0000
vt 0.3573 0.3017 0.0000
vt 0.6826 0.1403 0.0000
vt 0.6826 0.3017 0.0000
vt 0.8198 0.1403 0.0000
vt 0.8198 0.3018 0.0000
vt 0.9632 0.4755 0.0000
vt 0.8993 0.4755 0.0000
vt 0.9057 0.4706 0.0000
vt 0.9602 0.4706 0.0000
vt 0.8993 0.3969 0.0000
vt 0.9057 0.4034 0.0000
vt 0.9751 0.3969 0.0000
vt 0.9703 0.4034 0.0000
vt 0.9751 0.4632 0.0000
vt 0.9703 0.4601 0.0000
vt 0.9874 0.4547 0.0000
vt 0.9874 0.3981 0.0000
vt 0.9893 0.3981 0.0000
vt 0.9893 0.4547 0.0000
vt 0.8964 0.4031 0.0000
vt 0.8964 0.4703 0.0000
vt 0.8944 0.4703 0.0000
vt 0.8944 0.4031 0.0000
vt 0.8903 0.4023 0.0000
vt 0.8903 0.4694 0.0000
vt 0.8883 0.4694 0.0000
vt 0.8883 0.4023 0.0000
vt 0.9816 0.4582 0.0000
vt 0.9816 0.4015 0.0000
vt 0.9836 0.4015 0.0000
vt 0.9836 0.4582 0.0000
vt 0.9874 0.4652 0.0000
vt 0.9893 0.4652 0.0000
vt 0.9064 0.4704 0.0000
vt 0.9064 0.4033 0.0000
vt 0.9710 0.4599 0.0000
vt 0.9609 0.4704 0.0000
vt 0.9710 0.4033 0.0000
vt 0.8577 0.0169 0.0000
vt 0.9946 0.0169 0.0000
vt 0.9946 0.1295 0.0000
vt 0.8577 0.1295 0.0000
vt 0.3602 0.0169 0.0000
vt 0.5226 0.0169 0.0000
vt 0.5226 0.1293 0.0000
vt 0.3602 0.1292 0.0000
vt 0.6850 0.0169 0.0000
vt 0.6850 0.1295 0.0000
vt 0.8217 0.0170 0.0000
vt 0.8217 0.1295 0.0000
vt 0.9566 0.3911 0.0000
vt 0.8927 0.3911 0.0000
vt 0.8990 0.3862 0.0000
vt 0.9535 0.3862 0.0000
vt 0.8927 0.3125 0.0000
vt 0.8990 0.3190 0.0000
vt 0.9684 0.3125 0.0000
vt 0.9636 0.3190 0.0000
vt 0.9684 0.3788 0.0000
vt 0.9636 0.3756 0.0000
vt 0.9820 0.3746 0.0000
vt 0.9820 0.3180 0.0000
vt 0.9839 0.3180 0.0000
vt 0.9839 0.3746 0.0000
vt 0.9781 0.3154 0.0000
vt 0.9781 0.3825 0.0000
vt 0.9761 0.3825 0.0000
vt 0.9761 0.3154 0.0000
vt 0.9865 0.3836 0.0000
vt 0.9865 0.3164 0.0000
vt 0.9884 0.3164 0.0000
vt 0.9884 0.3836 0.0000
vt 0.9727 0.3154 0.0000
vt 0.9727 0.3720 0.0000
vt 0.9707 0.3720 0.0000
vt 0.9707 0.3154 0.0000
vt 0.9727 0.3825 0.0000
vt 0.9707 0.3825 0.0000
vt 0.8991 0.3864 0.0000
vt 0.8991 0.3193 0.0000
vt 0.9637 0.3759 0.0000
vt 0.9536 0.3864 0.0000
vt 0.9637 0.3193 0.0000
vt 0.8032 0.3259 0.0000
vt 0.8032 0.3504 0.0000
vt 0.7732 0.3504 0.0000
vt 0.7732 0.3259 0.0000
vt 0.8576 0.3982 0.0000
vt 0.8576 0.3738 0.0000
vt 0.8609 0.3738 0.0000
vt 0.8609 0.3982 0.0000
vt 0.7894 0.3900 0.0000
vt 0.8195 0.3900 0.0000
vt 0.8195 0.3928 0.0000
vt 0.7894 0.3928 0.0000
vt 0.8510 0.3259 0.0000
vt 0.8510 0.3504 0.0000
vt 0.8477 0.3504 0.0000
vt 0.8477 0.3259 0.0000
vt 0.8501 0.3991 0.0000
vt 0.8501 0.3747 0.0000
vt 0.8534 0.3747 0.0000
vt 0.8534 0.3991 0.0000
vt 0.8405 0.3259 0.0000
vt 0.8405 0.3504 0.0000
vt 0.8104 0.3504 0.0000
vt 0.8104 0.3259 0.0000
vt 0.8317 0.3991 0.0000
vt 0.8317 0.3747 0.0000
vt 0.8350 0.3747 0.0000
vt 0.8350 0.3991 0.0000
vt 0.8206 0.3871 0.0000
vt 0.7906 0.3871 0.0000
vt 0.7906 0.3844 0.0000
vt 0.8206 0.3844 0.0000
vt 0.8728 0.3976 0.0000
vt 0.8728 0.3732 0.0000
vt 0.8761 0.3732 0.0000
vt 0.8761 0.3976 0.0000
vt 0.8423 0.3991 0.0000
vt 0.8423 0.3747 0.0000
vt 0.8456 0.3747 0.0000
vt 0.8456 0.3991 0.0000
vt 0.8893 0.6523 0.0000
vt 0.8893 0.6875 0.0000
vt 0.8854 0.6875 0.0000
vt 0.8854 0.6523 0.0000
vt 0.8969 0.6520 0.0000
vt 0.8969 0.6872 0.0000
vt 0.8930 0.6872 0.0000
vt 0.8930 0.6520 0.0000
vt 0.9035 0.6527 0.0000
vt 0.9035 0.6878 0.0000
vt 0.8996 0.6878 0.0000
vt 0.8996 0.6527 0.0000
vt 0.9108 0.6525 0.0000
vt 0.9108 0.6877 0.0000
vt 0.9069 0.6877 0.0000
vt 0.9069 0.6525 0.0000
vt 0.9931 0.9583 0.0000
vt 0.9931 0.9897 0.0000
vt 0.9760 0.9740 0.0000
vt 0.9622 0.9897 0.0000
vt 0.9622 0.9583 0.0000
vt 0.9196 0.6875 0.0000
vt 0.9196 0.6524 0.0000
vt 0.9235 0.6524 0.0000
vt 0.9235 0.6875 0.0000
vt 0.9249 0.6874 0.0000
vt 0.9249 0.6523 0.0000
vt 0.9288 0.6523 0.0000
vt 0.9288 0.6874 0.0000
vt 0.9145 0.6872 0.0000
vt 0.9145 0.6521 0.0000
vt 0.9184 0.6521 0.0000
vt 0.9184 0.6872 0.0000
vt 0.8845 0.6442 0.0000
vt 0.9197 0.6442 0.0000
vt 0.9197 0.6481 0.0000
vt 0.8845 0.6481 0.0000
vt 0.9528 0.9583 0.0000
vt 0.9528 0.9897 0.0000
vt 0.9357 0.9740 0.0000
vt 0.9219 0.9897 0.0000
vt 0.9219 0.9583 0.0000
vt 0.6796 0.7676 0.0000
vt 0.9921 0.7676 0.0000
vt 0.9921 0.9423 0.0000
vt 0.6796 0.9423 0.0000
vt 0.9012 0.9556 0.0000
vt 0.9012 0.9788 0.0000
vt 0.8388 0.9788 0.0000
vt 0.8388 0.9556 0.0000
vt 0.8218 0.9589 0.0000
vt 0.7595 0.9577 0.0000
vt 0.7596 0.9534 0.0000
vt 0.8219 0.9546 0.0000
vt 0.7884 0.9737 0.0000
vt 0.7654 0.9737 0.0000
vt 0.7654 0.9695 0.0000
vt 0.7884 0.9695 0.0000
vt 0.7452 0.9564 0.0000
vt 0.6829 0.9552 0.0000
vt 0.6829 0.9509 0.0000
vt 0.7453 0.9522 0.0000
vt 0.7257 0.9674 0.0000
vt 0.7487 0.9674 0.0000
vt 0.7487 0.9717 0.0000
vt 0.7257 0.9717 0.0000
# 347 texture coords

g tower14
usemtl Material__31
s 8
f 1/1/1 2/2/1 3/3/1 4/4/1 
s 16
f 5/5/2 6/6/2 2/7/2 1/8/2 
s 32
f 7/9/3 8/10/3 6/6/3 5/5/3 
s 64
f 9/11/4 10/12/4 11/13/4 12/14/4 
s off
f 13/15/5 14/16/5 15/17/5 16/18/5 
f 14/16/5 17/19/5 18/20/5 15/17/5 
f 17/19/5 19/21/5 20/22/5 18/20/5 
f 19/21/5 13/15/5 16/18/5 20/22/5 
f 16/23/1 15/24/1 21/25/1 22/26/1 
f 15/27/2 18/28/2 23/29/2 21/30/2 
f 18/31/3 20/32/3 24/33/3 23/34/3 
f 20/35/4 16/36/4 22/37/4 24/38/4 
f 22/39/5 21/40/5 25/41/5 26/42/5 
f 21/40/5 23/43/5 27/44/5 25/41/5 
f 23/43/5 24/45/5 28/46/5 27/44/5 
f 24/45/5 22/39/5 26/42/5 28/46/5 
f 26/47/1 25/48/1 29/49/1 30/50/1 
f 25/51/2 27/52/2 31/53/2 29/54/2 
f 27/55/3 28/56/3 32/57/3 31/58/3 
f 28/59/4 26/60/4 30/61/4 32/62/4 
f 30/63/5 29/64/5 33/65/5 34/66/5 
f 29/64/5 31/67/5 35/68/5 33/65/5 
f 31/67/5 32/69/5 36/70/5 35/68/5 
f 32/69/5 30/63/5 34/66/5 36/70/5 
f 34/71/1 33/72/1 37/73/1 38/74/1 
f 33/75/2 35/76/2 39/77/2 37/78/2 
f 35/79/3 36/80/3 40/81/3 39/82/3 
f 36/83/4 34/84/4 38/85/4 40/86/4 
f 38/87/5 37/88/5 41/89/5 42/90/5 
f 37/88/5 39/91/5 43/92/5 41/89/5 
f 39/91/5 40/93/5 44/94/5 43/92/5 
f 40/93/5 38/87/5 42/90/5 44/94/5 
f 42/95/1 41/96/1 45/97/1 46/98/1 
f 41/99/2 43/100/2 47/101/2 45/102/2 
f 43/103/3 44/104/3 48/105/3 47/106/3 
f 44/107/4 42/108/4 46/109/4 48/110/4 
f 47/111/5 48/112/5 46/113/5 45/114/5 
s 8
f 14/115/1 13/116/1 3/3/1 2/2/1 
s 16
f 17/117/2 14/118/2 2/7/2 6/6/2 
s 32
f 19/119/3 17/117/3 6/6/3 8/10/3 
s 64
f 13/116/4 19/119/4 8/10/4 3/3/4 
s off
f 4/120/1 3/121/1 10/12/1 9/11/1 
f 49/122/5 50/123/5 51/124/5 52/125/5 
f 8/126/3 7/127/3 12/14/3 11/13/3 
f 3/128/5 8/129/5 53/130/5 54/131/5 
f 8/129/5 11/132/5 55/133/5 53/130/5 
f 11/132/5 10/134/5 56/135/5 55/133/5 
f 10/134/5 3/128/5 54/131/5 56/135/5 
f 54/136/4 53/137/4 50/138/4 49/139/4 
f 53/140/1 55/141/1 51/142/1 50/143/1 
f 55/144/2 56/145/2 52/146/2 51/147/2 
f 56/148/3 54/149/3 49/150/3 52/151/3 
s 8
f 57/152/1 58/153/1 59/154/1 60/155/1 
s 16
f 58/156/2 61/157/2 62/158/2 59/159/2 
s 32
f 61/157/3 63/160/3 64/161/3 62/158/3 
s 64
f 63/160/4 65/162/4 66/163/4 64/161/4 
s off
f 60/155/6 66/163/6 65/162/6 57/152/6 
f 60/164/5 59/165/5 67/166/5 68/167/5 
f 59/165/5 62/168/5 69/169/5 67/166/5 
f 62/168/5 64/170/5 70/171/5 69/169/5 
f 64/170/5 66/172/5 71/173/5 70/171/5 
f 66/172/5 60/164/5 68/167/5 71/173/5 
f 68/174/3 67/175/3 72/176/3 73/177/3 
f 67/178/4 69/179/4 74/180/4 72/181/4 
f 69/182/1 70/183/1 75/184/1 74/185/1 
f 70/186/2 71/187/2 76/188/2 75/189/2 
f 71/190/7 68/174/7 73/177/7 76/191/7 
f 72/192/5 74/193/5 76/194/5 73/195/5 
f 74/193/5 75/196/5 76/194/5 
s 8
f 77/197/1 78/198/1 79/199/1 80/200/1 
s 16
f 78/201/2 81/202/2 82/203/2 79/204/2 
s 32
f 81/202/3 83/205/3 84/206/3 82/203/3 
s 64
f 83/205/4 85/207/4 86/208/4 84/206/4 
s off
f 80/200/6 86/208/6 85/207/6 77/197/6 
f 80/209/5 79/210/5 87/211/5 88/212/5 
f 79/210/5 82/213/5 89/214/5 87/211/5 
f 82/213/5 84/215/5 90/216/5 89/214/5 
f 84/215/5 86/217/5 91/218/5 90/216/5 
f 86/217/5 80/209/5 88/212/5 91/218/5 
f 88/219/3 87/220/3 92/221/3 93/222/3 
f 87/223/4 89/224/4 94/225/4 92/226/4 
f 89/227/1 90/228/1 95/229/1 94/230/1 
f 90/231/2 91/232/2 96/233/2 95/234/2 
f 91/232/7 88/235/7 93/236/7 96/233/7 
f 92/237/5 94/238/5 96/239/5 93/240/5 
f 94/238/5 95/241/5 96/239/5 
s 1
f 97/242/5 98/243/5 99/244/5 100/245/5 
s off
f 101/246/4 102/247/4 97/248/4 100/249/4 
f 102/250/1 103/251/1 98/252/1 97/253/1 
f 103/254/2 104/255/2 99/256/2 98/257/2 
f 104/258/3 101/259/3 100/260/3 99/261/3 
s 1
f 105/262/5 106/263/5 107/264/5 108/265/5 
s off
f 109/266/4 110/267/4 105/268/4 108/269/4 
f 110/270/1 111/271/1 106/272/1 105/273/1 
f 111/274/2 112/275/2 107/276/2 106/277/2 
f 112/278/3 109/279/3 108/280/3 107/281/3 
f 113/282/4 114/283/4 115/284/4 116/285/4 
f 114/286/1 117/287/1 118/288/1 115/289/1 
f 117/290/2 119/291/2 120/292/2 118/293/2 
f 119/294/3 113/295/3 116/296/3 120/297/3 
f 116/298/8 115/299/8 121/300/8 
f 115/299/9 118/301/9 121/300/9 
f 118/301/10 120/302/10 121/300/10 
f 120/302/11 116/298/11 121/300/11 
f 122/303/4 123/304/4 124/305/4 125/306/4 
f 123/307/1 126/308/1 127/309/1 124/310/1 
f 126/311/2 128/312/2 129/313/2 127/314/2 
f 128/315/3 122/316/3 125/317/3 129/318/3 
f 125/319/8 124/320/8 130/321/8 
f 124/320/9 127/322/9 130/321/9 
f 127/322/10 129/323/10 130/321/10 
f 129/323/11 125/319/11 130/321/11 
f 131/324/6 132/325/6 133/326/6 134/327/6 
f 135/328/7 136/329/7 137/330/7 138/331/7 
s 1
f 135/332/5 138/333/5 134/334/5 133/335/5 
s 2
f 138/336/12 137/337/12 131/338/12 134/339/12 
s 1
f 137/340/13 136/341/13 132/342/13 131/343/13 
s 2
f 136/344/14 135/345/14 133/346/14 132/347/14 
# 108 polygons - 10 triangles

