# 3ds Max Wavefront OBJ Exporter v0.97b - (c)2007 guruware
# File Created: 25.11.2016 14:54:28

mtllib tower25.mtl

#
# object tower25
#

v  -4.4212 -13.2303 0.0000
v  4.4212 -13.2303 0.0000
v  4.4212 -13.2303 3.6688
v  -4.4212 -13.2303 3.6688
v  4.4212 -4.3878 0.0000
v  4.4212 -4.3878 3.6688
v  -4.4159 -4.3878 0.0000
v  -4.4159 -4.3878 3.6688
v  5.4195 -14.2285 3.6688
v  -5.4195 -14.2285 3.6688
v  5.4195 -3.3896 3.6688
v  4.4223 -3.3896 3.6688
v  -5.4195 -3.3896 3.6688
v  5.4195 -14.2285 4.7321
v  -5.4195 -14.2285 4.7321
v  5.4195 -3.3896 4.7321
v  -4.4159 13.8136 -0.0448
v  -4.4159 13.8167 10.0762
v  4.4205 13.8167 10.0762
v  4.4212 13.8136 -0.0448
v  -5.4195 -3.3896 4.7321
v  4.9967 -13.8057 4.7321
v  -4.9967 -13.8057 4.7321
v  4.9967 -3.8124 4.7321
v  -4.9967 -3.8124 4.7321
v  4.9967 -13.8057 10.0773
v  -4.9967 -13.8057 10.0773
v  4.9997 -3.8124 10.0773
v  -4.9974 -3.8124 10.0773
v  -4.9967 -13.8057 21.2052
v  4.9967 -13.8057 21.2052
v  3.4543 -12.2634 21.2052
v  -3.4543 -12.2634 21.2052
v  4.9967 -3.8124 21.2052
v  3.4543 -5.3547 21.2052
v  -4.9967 -3.8124 21.2052
v  -3.4543 -5.3547 21.2052
v  3.4543 -12.2634 24.9193
v  -3.4543 -12.2634 24.9193
v  3.4543 -5.3547 24.9193
v  -3.4543 -5.3547 24.9193
v  4.1073 -12.9163 24.9193
v  -4.1073 -12.9163 24.9193
v  4.1073 -4.7018 24.9193
v  -4.1073 -4.7018 24.9193
v  4.1073 -12.9163 26.2137
v  -4.1073 -12.9163 26.2137
v  4.1073 -4.7018 26.2137
v  -4.1073 -4.7018 26.2137
v  -4.9967 -13.8057 11.1566
v  4.9967 -13.8057 11.1566
v  4.9997 -3.8124 11.1566
v  -4.9974 -3.8124 11.1566
v  -4.4159 -3.3896 4.7321
v  -4.4159 -3.3896 3.6688
v  4.4223 -3.3896 4.7321
v  -4.4159 -3.8124 4.7321
v  4.4204 -3.8124 4.7321
v  -4.4159 -3.8124 10.0773
v  -4.4159 -1.2711 -0.0074
v  -4.4159 -1.2645 10.0763
v  5.0027 -1.2638 11.1493
v  5.0028 -1.2645 10.0763
v  4.4205 -1.2645 10.0763
v  4.4212 -1.2711 -0.0074
v  -4.8279 14.2285 11.1116
v  -4.8277 14.2284 10.0761
v  -4.9982 -1.2645 10.0763
v  -4.9982 -1.2638 11.1492
v  4.8324 14.2285 11.1117
v  4.8323 14.2284 10.0761
v  4.4204 -3.8124 10.0773
v  -0.6126 -10.0691 25.9251
v  -0.6126 -11.4465 25.9251
v  -0.6126 -11.4465 26.7958
v  -0.6126 -10.0691 26.7958
v  0.7647 -11.4465 25.9251
v  0.7647 -11.4465 26.7958
v  0.7647 -10.0691 25.9251
v  0.7647 -10.0691 26.7958
v  -0.2903 -10.9141 26.7958
v  -0.2903 -10.6016 26.7958
v  0.2323 -11.1242 26.7958
v  -0.0802 -11.1242 26.7958
v  0.4424 -10.6016 26.7958
v  0.4424 -10.9141 26.7958
v  -0.0802 -10.3915 26.7958
v  0.2323 -10.3915 26.7958
v  0.0760 -10.7578 30.3591
v  -1.1680 7.4052 11.8669
v  1.3201 7.4052 11.8669
v  1.3201 9.8933 11.8669
v  -1.1680 9.8933 11.8669
v  -1.1680 9.8933 10.9962
v  -1.1680 7.4052 10.9962
v  1.3201 7.4052 10.9962
v  1.3201 9.8933 10.9962
v  -1.1680 0.9539 11.8669
v  1.3201 0.9539 11.8669
v  1.3201 3.4420 11.8669
v  -1.1680 3.4420 11.8669
v  -1.1680 3.4420 10.9962
v  -1.1680 0.9539 10.9962
v  1.3201 0.9539 10.9962
v  1.3201 3.4420 10.9962
v  -0.6126 -6.3587 25.9251
v  -0.6126 -7.7361 25.9251
v  -0.6126 -7.7361 26.7958
v  -0.6126 -6.3587 26.7958
v  0.7647 -7.7361 25.9251
v  0.7647 -7.7361 26.7958
v  0.7647 -6.3587 25.9251
v  0.7647 -6.3587 26.7958
v  -0.2903 -7.2037 26.7958
v  -0.2903 -6.8912 26.7958
v  0.2323 -7.4138 26.7958
v  -0.0802 -7.4138 26.7958
v  0.4424 -6.8912 26.7958
v  0.4424 -7.2037 26.7958
v  -0.0802 -6.6811 26.7958
v  0.2323 -6.6811 26.7958
v  0.0760 -7.0474 30.3591
# 122 vertices

vn 0.0000 -1.0000 0.0000
vn 1.0000 0.0000 0.0000
vn -1.0000 0.0006 0.0000
vn 0.0000 0.0000 -1.0000
vn 0.0000 -0.0000 -1.0000
vn -0.0000 0.0000 -1.0000
vn 0.0000 1.0000 -0.0003
vn -1.0000 0.0000 0.0000
vn 0.0000 0.0000 1.0000
vn 0.0000 -0.0000 1.0000
vn 1.0000 -0.0002 -0.0003
vn -1.0000 -0.0000 -0.0001
vn -0.0000 -0.0000 1.0000
vn 1.0000 -0.0000 0.0000
vn 0.0000 1.0000 0.0000
vn -1.0000 -0.0000 0.0000
vn 0.0000 -1.0000 -0.0000
vn 1.0000 -0.0002 0.0002
vn -0.0000 1.0000 0.0000
vn -0.0000 0.0000 1.0000
vn 0.0000 1.0000 -0.0000
vn -0.0000 -0.0000 -1.0000
vn 1.0000 -0.0012 0.0000
vn 1.0000 -0.0044 0.0023
vn 1.0000 0.0006 0.0001
vn 1.0000 -0.0010 -0.0009
vn -0.9999 0.0110 -0.0001
vn 1.0000 0.0000 0.0001
vn 0.0000 1.0000 -0.0001
vn 1.0000 -0.0003 0.0000
vn -1.0000 -0.0001 0.0000
vn -1.0000 -0.0003 0.0000
vn 0.9999 0.0110 -0.0000
vn -0.0000 0.0022 1.0000
vn -0.0000 0.0027 1.0000
vn 0.0000 -0.0004 -1.0000
vn -0.0001 -0.0000 -1.0000
vn 0.0000 -0.0003 -1.0000
vn 0.0001 -0.0000 -1.0000
vn -0.0000 -0.0004 -1.0000
vn -0.9938 -0.0000 0.1109
vn 0.0000 -0.9938 0.1109
vn 0.9938 0.0000 0.1109
vn 0.0000 0.9938 0.1109
vn -0.7027 0.7027 0.1119
vn -0.7027 -0.7027 0.1119
vn 0.7027 -0.7027 0.1119
vn 0.7027 0.7027 0.1119
# 48 vertex normals

vt 0.6953 0.3629 0.0000
vt 0.8466 0.3629 0.0000
vt 0.8466 0.4207 0.0000
vt 0.6953 0.4207 0.0000
vt 0.8684 0.3507 0.0000
vt 0.6573 0.3507 0.0000
vt 0.6573 0.4385 0.0000
vt 0.8684 0.4385 0.0000
vt 0.8684 0.4386 0.0000
vt 0.6573 0.4386 0.0000
vt 0.6865 0.0341 0.0000
vt 0.6865 0.1853 0.0000
vt 0.6694 0.2024 0.0000
vt 0.6694 0.0170 0.0000
vt 0.8377 0.1853 0.0000
vt 0.8548 0.2024 0.0000
vt 0.8548 0.1853 0.0000
vt 0.8377 0.0341 0.0000
vt 0.8548 0.0170 0.0000
vt 0.9759 0.1509 0.0000
vt 0.7905 0.1509 0.0000
vt 0.7905 0.1342 0.0000
vt 0.9759 0.1342 0.0000
vt 0.9759 0.1766 0.0000
vt 0.7905 0.1766 0.0000
vt 0.7905 0.1598 0.0000
vt 0.9759 0.1598 0.0000
vt 0.2224 0.3492 0.0000
vt 0.2224 0.5908 0.0000
vt 0.0114 0.5908 0.0000
vt 0.0114 0.3492 0.0000
vt 0.9759 0.2023 0.0000
vt 0.7905 0.2023 0.0000
vt 0.7905 0.1855 0.0000
vt 0.9759 0.1855 0.0000
vt 0.0046 0.0082 0.0000
vt 0.1900 0.0082 0.0000
vt 0.1828 0.0154 0.0000
vt 0.0118 0.0154 0.0000
vt 0.1900 0.1936 0.0000
vt 0.1828 0.1864 0.0000
vt 0.0046 0.1936 0.0000
vt 0.0118 0.1864 0.0000
vt 0.4905 0.6041 0.0000
vt 0.4905 0.7274 0.0000
vt 0.2515 0.7278 0.0000
vt 0.2515 0.6041 0.0000
vt 0.7294 0.6041 0.0000
vt 0.7294 0.7270 0.0000
vt 0.0127 0.7278 0.0000
vt 0.0127 0.6041 0.0000
vt 0.2054 0.0147 0.0000
vt 0.3763 0.0147 0.0000
vt 0.3500 0.0410 0.0000
vt 0.2318 0.0410 0.0000
vt 0.3763 0.1856 0.0000
vt 0.3500 0.1592 0.0000
vt 0.2054 0.1856 0.0000
vt 0.2318 0.1592 0.0000
vt 0.7433 0.6546 0.0000
vt 0.9083 0.6546 0.0000
vt 0.9083 0.7402 0.0000
vt 0.7433 0.7402 0.0000
vt 0.7434 0.6552 0.0000
vt 0.9083 0.6552 0.0000
vt 0.9083 0.7409 0.0000
vt 0.7434 0.7409 0.0000
vt 0.7435 0.6552 0.0000
vt 0.9085 0.6552 0.0000
vt 0.9085 0.7409 0.0000
vt 0.7435 0.7409 0.0000
vt 0.7433 0.6553 0.0000
vt 0.9083 0.6553 0.0000
vt 0.9083 0.7410 0.0000
vt 0.7433 0.7410 0.0000
vt 0.8000 0.0602 0.0000
vt 0.6818 0.0602 0.0000
vt 0.6706 0.0490 0.0000
vt 0.8111 0.0490 0.0000
vt 0.6818 0.1784 0.0000
vt 0.6706 0.1896 0.0000
vt 0.8000 0.1784 0.0000
vt 0.8111 0.1896 0.0000
vt 0.6790 0.1265 0.0000
vt 0.8195 0.1265 0.0000
vt 0.8195 0.1469 0.0000
vt 0.6790 0.1469 0.0000
vt 0.8308 0.1018 0.0000
vt 0.9713 0.1018 0.0000
vt 0.9713 0.1222 0.0000
vt 0.8308 0.1222 0.0000
vt 0.6790 0.1559 0.0000
vt 0.8195 0.1559 0.0000
vt 0.8195 0.1763 0.0000
vt 0.6790 0.1763 0.0000
vt 0.6790 0.0972 0.0000
vt 0.8195 0.0972 0.0000
vt 0.8195 0.1176 0.0000
vt 0.6790 0.1176 0.0000
vt 0.6777 0.1894 0.0000
vt 0.6777 0.0489 0.0000
vt 0.8182 0.0489 0.0000
vt 0.8182 0.1894 0.0000
vt 0.4905 0.9840 0.0000
vt 0.2515 0.9844 0.0000
vt 0.2515 0.7527 0.0000
vt 0.4905 0.7523 0.0000
vt 0.7292 0.9842 0.0000
vt 0.7292 0.7525 0.0000
vt 0.9676 0.9849 0.0000
vt 0.9676 0.7532 0.0000
vt 0.0127 0.9844 0.0000
vt 0.0127 0.7527 0.0000
vt 0.7720 0.1123 0.0000
vt 0.7887 0.1123 0.0000
vt 0.7887 0.1294 0.0000
vt 0.7720 0.1294 0.0000
vt 0.7630 0.1294 0.0000
vt 0.7463 0.1294 0.0000
vt 0.7463 0.1124 0.0000
vt 0.7630 0.1124 0.0000
vt 0.0217 0.1936 0.0000
vt 0.0217 0.1864 0.0000
vt 0.1729 0.1936 0.0000
vt 0.1729 0.1864 0.0000
vt 0.0443 0.0795 0.0000
vt 0.1285 0.0795 0.0000
vt 0.1285 0.0894 0.0000
vt 0.0443 0.0894 0.0000
vt 0.8548 0.0341 0.0000
vt 0.5828 0.3506 0.0000
vt 0.6334 0.4386 0.0000
vt 0.6334 0.4640 0.0000
vt 0.5827 0.5920 0.0000
vt 0.6435 0.4640 0.0000
vt 0.6435 0.5920 0.0000
vt 0.9421 0.1012 0.0000
vt 0.9857 0.1010 0.0000
vt 0.9857 0.1180 0.0000
vt 0.9421 0.1181 0.0000
vt 0.6436 0.4640 0.0000
vt 0.6335 0.4640 0.0000
vt 0.6335 0.4385 0.0000
vt 0.5829 0.3505 0.0000
vt 0.6784 0.0599 0.0000
vt 0.6784 0.0436 0.0000
vt 0.9434 0.0436 0.0000
vt 0.9434 0.0605 0.0000
vt 0.2227 0.3496 0.0000
vt 0.2227 0.5920 0.0000
vt 0.8437 0.0885 0.0000
vt 0.6784 0.0885 0.0000
vt 0.6784 0.0722 0.0000
vt 0.8437 0.0722 0.0000
vt 0.0443 0.0705 0.0000
vt 0.0443 0.0606 0.0000
vt 0.1285 0.0606 0.0000
vt 0.1285 0.0706 0.0000
vt 0.9870 0.0436 0.0000
vt 0.9870 0.0606 0.0000
vt 0.6436 0.5920 0.0000
vt 0.2227 0.3497 0.0000
vt 0.2226 0.5920 0.0000
vt 0.6771 0.1017 0.0000
vt 0.6771 0.1181 0.0000
vt 0.6737 0.2015 0.0000
vt 0.6737 0.0363 0.0000
vt 0.9387 0.0334 0.0000
vt 0.9387 0.2045 0.0000
vt 0.9823 0.0334 0.0000
vt 0.9823 0.2044 0.0000
vt 0.6785 0.1977 0.0000
vt 0.7221 0.1977 0.0000
vt 0.7221 0.2077 0.0000
vt 0.6785 0.2076 0.0000
vt 0.9801 0.1977 0.0000
vt 0.9872 0.2048 0.0000
vt 0.9801 0.0466 0.0000
vt 0.9872 0.0395 0.0000
vt 0.7221 0.0466 0.0000
vt 0.7221 0.0366 0.0000
vt 0.6785 0.0466 0.0000
vt 0.6785 0.0366 0.0000
vt 0.0522 0.2066 0.0000
vt 0.0522 0.1092 0.0000
vt 0.1460 0.1092 0.0000
vt 0.1460 0.2066 0.0000
vt 0.0522 0.1371 0.0000
vt 0.0522 0.1787 0.0000
vt 0.1191 0.1092 0.0000
vt 0.0791 0.1092 0.0000
vt 0.1460 0.1787 0.0000
vt 0.1460 0.1371 0.0000
vt 0.0791 0.2066 0.0000
vt 0.1191 0.2066 0.0000
vt 0.0991 0.1579 0.0000
vt 0.8885 0.2722 0.0000
vt 0.9823 0.2722 0.0000
vt 0.9823 0.3697 0.0000
vt 0.8885 0.3697 0.0000
# 200 texture coords

g tower25
usemtl Material__30
s 8
f 1/1/1 2/2/1 3/3/1 4/4/1 
s 16
f 2/5/2 5/6/2 6/7/2 3/8/2 
s 64
f 7/6/3 1/5/3 4/9/3 8/10/3 
s off
f 4/11/4 3/12/4 9/13/4 10/14/4 
f 3/12/4 6/15/4 11/16/4 9/13/4 
f 6/15/5 12/17/5 11/16/5 
f 8/18/6 4/11/6 10/14/6 13/19/6 
f 10/20/1 9/21/1 14/22/1 15/23/1 
f 9/24/2 11/25/2 16/26/2 14/27/2 
f 17/28/7 18/29/7 19/30/7 20/31/7 
f 13/32/8 10/33/8 15/34/8 21/35/8 
f 15/36/9 14/37/9 22/38/9 23/39/9 
f 14/37/10 16/40/10 24/41/10 22/38/10 
f 21/42/10 15/36/10 23/39/10 25/43/10 
f 22/44/1 26/45/1 27/46/1 23/47/1 
f 24/48/11 28/49/11 26/45/11 22/44/11 
f 23/47/12 27/46/12 29/50/12 25/51/12 
f 30/52/9 31/53/9 32/54/9 33/55/9 
f 31/53/13 34/56/13 35/57/13 32/54/13 
f 34/56/10 36/58/10 37/59/10 35/57/10 
f 36/58/10 30/52/10 33/55/10 37/59/10 
f 33/60/1 32/61/1 38/62/1 39/63/1 
f 32/64/14 35/65/14 40/66/14 38/67/14 
f 35/68/15 37/69/15 41/70/15 40/71/15 
f 37/72/16 33/73/16 39/74/16 41/75/16 
f 39/76/4 38/77/4 42/78/4 43/79/4 
f 38/77/6 40/80/6 44/81/6 42/78/6 
f 40/80/5 41/82/5 45/83/5 44/81/5 
f 41/82/4 39/76/4 43/79/4 45/83/4 
f 43/84/1 42/85/1 46/86/1 47/87/1 
f 42/88/2 44/89/2 48/90/2 46/91/2 
f 44/92/15 45/93/15 49/94/15 48/95/15 
f 45/96/8 43/97/8 47/98/8 49/99/8 
f 48/100/10 49/101/10 47/102/10 46/103/10 
f 31/104/17 30/105/17 50/106/17 51/107/17 
f 34/108/18 31/104/18 51/107/18 52/109/18 
f 36/110/19 34/108/19 52/109/19 53/111/19 
f 30/105/16 36/112/16 53/113/16 50/106/16 
f 13/114/15 21/115/15 54/116/15 55/117/15 
f 16/118/19 11/119/19 12/120/19 56/121/19 
f 54/122/9 21/42/9 25/43/9 57/123/9 
f 24/41/20 16/40/20 56/124/20 58/125/20 
f 25/126/21 29/127/21 59/128/21 57/129/21 
f 8/18/22 13/19/22 55/130/22 
f 7/6/8 8/10/8 60/131/8 
f 8/10/8 55/132/8 60/131/8 
f 54/133/16 61/134/16 60/131/16 55/132/16 
f 54/133/16 57/135/16 61/134/16 
f 57/135/16 59/136/16 61/134/16 
f 62/137/23 52/138/23 28/139/23 63/140/23 
f 58/141/24 56/142/24 64/134/24 
f 12/143/25 65/144/25 64/134/25 56/142/25 
f 12/143/26 6/7/26 65/144/26 
f 6/7/2 5/6/2 65/144/2 
f 66/145/27 67/146/27 68/147/27 69/148/27 
f 20/149/28 19/150/28 64/134/28 65/144/28 
f 66/151/29 70/152/29 71/153/29 67/154/29 
f 51/107/1 50/106/1 27/46/1 26/45/1 
f 52/109/30 51/107/30 26/45/30 28/49/30 
f 50/106/31 53/113/31 29/50/31 27/46/31 
f 24/155/15 58/156/15 72/157/15 28/158/15 
f 69/148/32 68/147/32 29/159/32 53/160/32 
f 72/161/14 58/141/14 64/134/14 
f 17/162/8 60/131/8 61/134/8 18/163/8 
f 70/164/33 62/137/33 63/140/33 71/165/33 
f 70/166/34 66/167/34 69/168/34 62/169/34 
f 53/170/35 52/171/35 62/169/35 69/168/35 
f 72/172/36 64/173/36 63/174/36 28/175/36 
f 64/173/37 19/176/37 71/177/37 63/174/37 
f 19/176/38 18/178/38 67/179/38 71/177/38 
f 18/178/39 61/180/39 68/181/39 67/179/39 
f 61/180/40 59/182/40 29/183/40 68/181/40 
f 73/184/16 74/185/16 75/185/16 76/184/16 
f 74/185/1 77/186/1 78/186/1 75/185/1 
f 77/186/2 79/187/2 80/187/2 78/186/2 
f 79/187/15 73/184/15 76/184/15 80/187/15 
f 76/184/9 75/185/9 81/188/9 82/189/9 
f 75/185/9 78/186/9 83/190/9 84/191/9 
f 78/186/9 80/187/9 85/192/9 86/193/9 
f 80/187/9 76/184/9 87/194/9 88/195/9 
f 87/194/9 76/184/9 82/189/9 
f 81/188/9 75/185/9 84/191/9 
f 83/190/9 78/186/9 86/193/9 
f 85/192/9 80/187/9 88/195/9 
f 82/189/41 81/188/41 89/196/41 
f 84/191/42 83/190/42 89/196/42 
f 86/193/43 85/192/43 89/196/43 
f 88/195/44 87/194/44 89/196/44 
f 87/194/45 82/189/45 89/196/45 
f 81/188/46 84/191/46 89/196/46 
f 83/190/47 86/193/47 89/196/47 
f 85/192/48 88/195/48 89/196/48 
s 1
f 90/197/9 91/198/9 92/199/9 93/200/9 
s off
f 94/200/16 95/197/16 90/197/16 93/200/16 
f 95/197/1 96/198/1 91/198/1 90/197/1 
f 96/198/2 97/199/2 92/199/2 91/198/2 
f 97/199/15 94/200/15 93/200/15 92/199/15 
s 1
f 98/197/9 99/198/9 100/199/9 101/200/9 
s off
f 102/200/8 103/197/8 98/197/8 101/200/8 
f 103/197/1 104/198/1 99/198/1 98/197/1 
f 104/198/2 105/199/2 100/199/2 99/198/2 
f 105/199/15 102/200/15 101/200/15 100/199/15 
f 106/184/16 107/185/16 108/185/16 109/184/16 
f 107/185/1 110/186/1 111/186/1 108/185/1 
f 110/186/2 112/187/2 113/187/2 111/186/2 
f 112/187/15 106/184/15 109/184/15 113/187/15 
f 109/184/9 108/185/9 114/188/9 115/189/9 
f 108/185/9 111/186/9 116/190/9 117/191/9 
f 111/186/9 113/187/9 118/192/9 119/193/9 
f 113/187/9 109/184/9 120/194/9 121/195/9 
f 120/194/9 109/184/9 115/189/9 
f 114/188/9 108/185/9 117/191/9 
f 116/190/9 111/186/9 119/193/9 
f 118/192/9 113/187/9 121/195/9 
f 115/189/41 114/188/41 122/196/41 
f 117/191/42 116/190/42 122/196/42 
f 119/193/43 118/192/43 122/196/43 
f 121/195/44 120/194/44 122/196/44 
f 120/194/45 115/189/45 122/196/45 
f 114/188/46 117/191/46 122/196/46 
f 116/190/47 119/193/47 122/196/47 
f 118/192/48 121/195/48 122/196/48 
# 88 polygons - 34 triangles

