# 3ds Max Wavefront OBJ Exporter v0.97b - (c)2007 guruware
# File Created: 25.11.2016 14:56:17

mtllib tree2.mtl

#
# object tree2
#

v  -0.1699 0.1025 1.7903
v  -0.1699 0.7176 1.4352
v  -0.7026 0.4100 1.4352
v  -0.7026 -0.2050 1.4352
v  -0.1699 -0.5125 1.4352
v  0.3627 -0.2050 1.4352
v  0.3627 0.4100 1.4352
v  -0.7026 0.4100 0.7250
v  -0.1699 0.7176 0.7250
v  -0.7026 -0.2050 0.7250
v  -0.1699 -0.5125 0.7250
v  0.3627 -0.2050 0.7250
v  0.3627 0.4100 0.7250
v  -0.1699 0.1025 0.3700
v  0.3922 -0.3591 1.1933
v  0.3922 -0.0007 0.9864
v  0.0818 -0.1799 0.9864
v  0.0818 -0.5383 0.9864
v  0.3922 -0.7176 0.9864
v  0.7026 -0.5383 0.9864
v  0.7026 -0.1799 0.9864
v  0.0818 -0.1799 0.5725
v  0.3922 -0.0007 0.5725
v  0.0818 -0.5383 0.5725
v  0.3922 -0.7176 0.5725
v  0.7026 -0.5383 0.5725
v  0.7026 -0.1799 0.5725
v  0.3922 -0.3591 0.3656
v  -0.0904 0.0914 0.0000
v  -0.1737 0.1747 0.0000
v  -0.1737 0.1747 0.5788
v  -0.0904 0.0914 0.5788
v  -0.2503 0.0981 0.0000
v  -0.2503 0.0981 0.5788
v  -0.1670 0.0148 0.0000
v  -0.1670 0.0148 0.5788
# 36 vertices

vn 0.0000 0.0000 1.0000
vn 0.0000 0.8973 0.4413
vn -0.7771 0.4487 0.4413
vn -0.7771 -0.4487 0.4413
vn -0.0000 -0.8973 0.4413
vn 0.7771 -0.4487 0.4413
vn 0.7771 0.4487 0.4413
vn -0.7771 0.4487 -0.4413
vn 0.0000 0.8973 -0.4413
vn -0.7771 -0.4487 -0.4413
vn -0.0000 -0.8973 -0.4413
vn 0.7771 -0.4487 -0.4413
vn 0.7771 0.4487 -0.4413
vn -0.0000 0.0000 -1.0000
vn 0.0000 -0.0000 1.0000
vn 0.0000 -0.0000 -1.0000
vn 1.0000 -0.0000 0.0000
vn -0.0000 1.0000 -0.0000
vn 0.0000 1.0000 -0.0000
vn -1.0000 0.0000 0.0000
vn 0.0000 -1.0000 0.0000
vn -0.0000 -1.0000 0.0000
# 22 vertex normals

vt 0.2018 0.8004 0.0000
vt 0.2018 0.6200 0.0000
vt 0.3580 0.7102 0.0000
vt 0.3580 0.8906 0.0000
vt 0.2018 0.9808 0.0000
vt 0.0455 0.8906 0.0000
vt 0.0455 0.7102 0.0000
vt 0.6051 0.9663 0.0000
vt 0.3968 0.9663 0.0000
vt 0.3968 0.8101 0.0000
vt 0.6051 0.8101 0.0000
vt 0.4124 0.9088 0.0000
vt 0.4124 0.7005 0.0000
vt 0.5928 0.7005 0.0000
vt 0.5928 0.9088 0.0000
vt 0.6033 0.8083 0.0000
vt 0.3950 0.8083 0.0000
vt 0.3950 0.6520 0.0000
vt 0.6033 0.6520 0.0000
vt 0.6033 0.9645 0.0000
vt 0.3950 0.9645 0.0000
vt 0.4105 0.9088 0.0000
vt 0.4105 0.7004 0.0000
vt 0.5909 0.7004 0.0000
vt 0.5909 0.9088 0.0000
vt 0.3968 0.6538 0.0000
vt 0.6051 0.6538 0.0000
vt 0.2014 0.8007 0.0000
vt 0.3577 0.8909 0.0000
vt 0.2014 0.9811 0.0000
vt 0.3577 0.7105 0.0000
vt 0.2014 0.6203 0.0000
vt 0.0452 0.7105 0.0000
vt 0.0452 0.8909 0.0000
vt 0.2003 0.8023 0.0000
vt 0.2003 0.6972 0.0000
vt 0.2913 0.7497 0.0000
vt 0.2913 0.8549 0.0000
vt 0.2003 0.9074 0.0000
vt 0.1092 0.8549 0.0000
vt 0.1092 0.7497 0.0000
vt 0.5853 0.8648 0.0000
vt 0.4638 0.8648 0.0000
vt 0.4638 0.7738 0.0000
vt 0.5853 0.7738 0.0000
vt 0.4611 0.7432 0.0000
vt 0.5825 0.7432 0.0000
vt 0.5825 0.8483 0.0000
vt 0.4611 0.8483 0.0000
vt 0.5828 0.7727 0.0000
vt 0.4614 0.7727 0.0000
vt 0.4614 0.6817 0.0000
vt 0.5828 0.6817 0.0000
vt 0.5828 0.8638 0.0000
vt 0.4614 0.8638 0.0000
vt 0.4700 0.8584 0.0000
vt 0.4700 0.7370 0.0000
vt 0.5752 0.7370 0.0000
vt 0.5752 0.8584 0.0000
vt 0.4638 0.6827 0.0000
vt 0.5853 0.6827 0.0000
vt 0.2027 0.8016 0.0000
vt 0.2938 0.8541 0.0000
vt 0.2027 0.9067 0.0000
vt 0.2938 0.7490 0.0000
vt 0.2027 0.6964 0.0000
vt 0.1116 0.7490 0.0000
vt 0.1116 0.8541 0.0000
vt 0.6801 0.4148 0.0000
vt 0.6557 0.4148 0.0000
vt 0.6557 0.0300 0.0000
vt 0.6801 0.0300 0.0000
vt 0.6332 0.4148 0.0000
vt 0.6332 0.0300 0.0000
vt 0.5530 0.4875 0.0000
vt 0.5286 0.4875 0.0000
vt 0.5286 0.1027 0.0000
vt 0.5530 0.1027 0.0000
vt 0.5061 0.1027 0.0000
vt 0.5061 0.4875 0.0000
# 80 texture coords

g tree2
usemtl Material__31
s 1
f 1/1/1 2/2/2 3/3/3 
f 1/1/1 3/3/3 4/4/4 
f 1/1/1 4/4/4 5/5/5 
f 1/1/1 5/5/5 6/6/6 
f 1/1/1 6/6/6 7/7/7 
f 1/1/1 7/7/7 2/2/2 
f 8/8/8 3/9/3 2/10/2 9/11/9 
f 10/12/10 4/13/4 3/14/3 8/15/8 
f 11/16/11 5/17/5 4/18/4 10/19/10 
f 12/20/12 6/21/6 5/17/5 11/16/11 
f 13/22/13 7/23/7 6/24/6 12/25/12 
f 9/11/9 2/10/2 7/26/7 13/27/13 
f 14/28/14 8/29/8 9/30/9 
f 14/28/14 10/31/10 8/29/8 
f 14/28/14 11/32/11 10/31/10 
f 14/28/14 12/33/12 11/32/11 
f 14/28/14 13/34/13 12/33/12 
f 14/28/14 9/30/9 13/34/13 
f 15/35/15 16/36/2 17/37/3 
f 15/35/15 17/37/3 18/38/4 
f 15/35/15 18/38/4 19/39/5 
f 15/35/15 19/39/5 20/40/6 
f 15/35/15 20/40/6 21/41/7 
f 15/35/15 21/41/7 16/36/2 
f 22/42/8 17/43/3 16/44/2 23/45/9 
f 24/46/10 18/47/4 17/48/3 22/49/8 
f 25/50/11 19/51/5 18/52/4 24/53/10 
f 26/54/12 20/55/6 19/51/5 25/50/11 
f 27/56/13 21/57/7 20/58/6 26/59/12 
f 23/45/9 16/44/2 21/60/7 27/61/13 
f 28/62/16 22/63/8 23/64/9 
f 28/62/16 24/65/10 22/63/8 
f 28/62/16 25/66/11 24/65/10 
f 28/62/16 26/67/12 25/66/11 
f 28/62/16 27/68/13 26/67/12 
f 28/62/16 23/64/9 27/68/13 
s 3
f 29/69/17 30/70/18 31/71/19 32/72/17 
s 1
f 30/70/18 33/73/20 34/74/20 31/71/19 
s 3
f 33/75/20 35/76/21 36/77/22 34/78/20 
s 1
f 32/79/17 36/77/22 35/76/21 29/80/17 
# 16 polygons - 24 triangles

